<svg width="152" height="137" viewBox="0 0 152 137" fill="none" xmlns="http://www.w3.org/2000/svg">
<path opacity="0.64" d="M101.064 56.8429C101.396 50.9307 100.071 46.5654 96.7982 44.0136C93.4865 41.4317 88.7587 41.4485 84.7504 43.3839C81.464 45.0181 79.4504 46.8424 78.1099 48.8828C75.8578 52.3108 76.183 56.5138 77.6233 60.9691C70.7279 62.6901 66.1229 65.8882 63.2543 70.2548C56.4982 80.5388 60.951 91.0453 70.4625 98.4606C72.0799 99.7215 73.7124 100.871 75.4589 101.492C79.5115 102.059 84.1891 101.942 89.4077 101.444L89.4467 100.055C86.3641 98.4538 83.3151 96.447 80.35 94.1354C69.0285 85.309 65.4312 75.7163 68.8092 70.5743C71.5707 66.3709 81.5453 66.4335 96.5441 71.5236C98.9346 69.7463 101.213 67.6965 103.426 65.6574L103.255 65.0307C94.1776 62.2734 88.452 61.3272 87.4123 60.5166C86.4881 59.7961 85.5459 57.9507 84.8098 55.5255C84.1693 52.8663 83.7984 50.4173 84.6563 49.1114C85.2193 48.2544 90.8932 48.4815 94.7826 51.5136C96.5155 52.8646 98.0304 54.7245 99.0628 57.319L101.064 56.8429Z" fill="#3498DB"/>
<path opacity="0.64" d="M101.064 56.8429C101.396 50.9307 100.071 46.5654 96.7982 44.0136C93.4865 41.4317 88.7587 41.4485 84.7504 43.3839C81.464 45.0181 79.4504 46.8424 78.1099 48.8828C75.8578 52.3108 76.183 56.5138 77.6233 60.9691C70.7279 62.6901 66.1229 65.8882 63.2543 70.2548C56.4982 80.5388 60.951 91.0453 70.4625 98.4606C72.0799 99.7215 73.7124 100.871 75.4589 101.492C79.5115 102.059 84.1891 101.942 89.4077 101.444L89.4467 100.055C86.3641 98.4538 83.3151 96.447 80.35 94.1354C69.0285 85.309 65.4312 75.7163 68.8092 70.5743C71.5707 66.3709 81.5453 66.4335 96.5441 71.5236C98.9346 69.7463 101.213 67.6965 103.426 65.6574L103.255 65.0307C94.1776 62.2734 88.452 61.3272 87.4123 60.5166C86.4881 59.7961 85.5459 57.9507 84.8098 55.5255C84.1693 52.8663 83.7984 50.4173 84.6563 49.1114C85.2193 48.2544 90.8932 48.4815 94.7826 51.5136C96.5155 52.8646 98.0304 54.7245 99.0628 57.319L101.064 56.8429Z" fill="#3498DB"/>
<path opacity="0.64" d="M101.064 56.8429C101.396 50.9307 100.071 46.5654 96.7982 44.0136C93.4865 41.4317 88.7587 41.4485 84.7504 43.3839C81.464 45.0181 79.4504 46.8424 78.1099 48.8828C75.8578 52.3108 76.183 56.5138 77.6233 60.9691C70.7279 62.6901 66.1229 65.8882 63.2543 70.2548C56.4982 80.5388 60.951 91.0453 70.4625 98.4606C72.0799 99.7215 73.7124 100.871 75.4589 101.492C79.5115 102.059 84.1891 101.942 89.4077 101.444L89.4467 100.055C86.3641 98.4538 83.3151 96.447 80.35 94.1354C69.0285 85.309 65.4312 75.7163 68.8092 70.5743C71.5707 66.3709 81.5453 66.4335 96.5441 71.5236C98.9346 69.7463 101.213 67.6965 103.426 65.6574L103.255 65.0307C94.1776 62.2734 88.452 61.3272 87.4123 60.5166C86.4881 59.7961 85.5459 57.9507 84.8098 55.5255C84.1693 52.8663 83.7984 50.4173 84.6563 49.1114C85.2193 48.2544 90.8932 48.4815 94.7826 51.5136C96.5155 52.8646 98.0304 54.7245 99.0628 57.319L101.064 56.8429Z" fill="#3498DB"/>
<path opacity="0.64" d="M101.064 56.8429C101.396 50.9307 100.071 46.5654 96.7982 44.0136C93.4865 41.4317 88.7587 41.4485 84.7504 43.3839C81.464 45.0181 79.4504 46.8424 78.1099 48.8828C75.8578 52.3108 76.183 56.5138 77.6233 60.9691C70.7279 62.6901 66.1229 65.8882 63.2543 70.2548C56.4982 80.5388 60.951 91.0453 70.4625 98.4606C72.0799 99.7215 73.7124 100.871 75.4589 101.492C79.5115 102.059 84.1891 101.942 89.4077 101.444L89.4467 100.055C86.3641 98.4538 83.3151 96.447 80.35 94.1354C69.0285 85.309 65.4312 75.7163 68.8092 70.5743C71.5707 66.3709 81.5453 66.4335 96.5441 71.5236C98.9346 69.7463 101.213 67.6965 103.426 65.6574L103.255 65.0307C94.1776 62.2734 88.452 61.3272 87.4123 60.5166C86.4881 59.7961 85.5459 57.9507 84.8098 55.5255C84.1693 52.8663 83.7984 50.4173 84.6563 49.1114C85.2193 48.2544 90.8932 48.4815 94.7826 51.5136C96.5155 52.8646 98.0304 54.7245 99.0628 57.319L101.064 56.8429Z" fill="#3498DB"/>
<path d="M44.625 52V104.5H35.875V52H18.375V43.25H62.125V52H44.625Z" fill="#3498DB" fill-opacity="0.6"/>
<path d="M59.5532 104.815C58.7594 104.251 59.1586 103 60.1326 103H105.767C106.631 103 107.089 104.021 106.513 104.666L98.5945 113.54C98.4048 113.752 98.1334 113.874 97.8484 113.874H72.6155C72.4079 113.874 72.2054 113.809 72.0361 113.689L59.5532 104.815Z" fill="#3498DB" fill-opacity="0.6"/>
<circle cx="63.5" cy="73.5" r="58.5" stroke="#629CC1" stroke-opacity="0.43" stroke-width="10"/>
</svg>
