<svg width="155" height="147" viewBox="0 0 155 147" fill="none" xmlns="http://www.w3.org/2000/svg">
<path opacity="0.64" d="M94.0643 66.8429C94.3963 60.9307 93.0714 56.5654 89.7982 54.0136C86.4865 51.4317 81.7587 51.4485 77.7504 53.3839C74.464 55.0181 72.4504 56.8424 71.1099 58.8828C68.8578 62.3108 69.183 66.5138 70.6233 70.9691C63.7279 72.6901 59.1229 75.8882 56.2543 80.2548C49.4982 90.5388 53.951 101.045 63.4625 108.461C65.0799 109.722 66.7124 110.871 68.4589 111.492C72.5115 112.059 77.1891 111.942 82.4077 111.444L82.4467 110.055C79.3641 108.454 76.3151 106.447 73.35 104.135C62.0285 95.309 58.4312 85.7163 61.8092 80.5743C64.5707 76.3709 74.5453 76.4335 89.5441 81.5236C91.9346 79.7463 94.2129 77.6965 96.426 75.6574L96.2554 75.0307C87.1776 72.2734 81.452 71.3272 80.4123 70.5166C79.4881 69.7961 78.5459 67.9507 77.8098 65.5255C77.1693 62.8663 76.7984 60.4173 77.6563 59.1114C78.2193 58.2544 83.8932 58.4815 87.7826 61.5136C89.5155 62.8646 91.0304 64.7245 92.0628 67.319L94.0643 66.8429Z" fill="#3498DB"/>
<path d="M49.0923 58.4659V123.767H38.2088V58.4659H16.4418V47.5824H70.8594V58.4659H49.0923Z" fill="#3498DB"/>
<rect x="39" y="113" width="74.2" height="10.8738" rx="1" fill="#3498DB"/>
<circle cx="63.5" cy="83.5" r="58.5" stroke="#3498DB" stroke-width="10"/>
</svg>
