<svg width="199" height="68" viewBox="0 0 199 68" fill="none" xmlns="http://www.w3.org/2000/svg">
<path fill-rule="evenodd" clip-rule="evenodd" d="M24.759 59.8833V18.5209H40.9246V10.4381H0.510559V18.5209H16.6762V67.0178H18.5125C18.6482 67.1954 18.8622 67.31 19.1029 67.31H154.114C154.524 67.31 154.857 66.9775 154.857 66.5673V60.626C154.857 60.2158 154.524 59.8833 154.114 59.8833H143.096V26.6038L155.221 50.8522H163.304L175.428 26.6038V50.8522H183.511V10.4381H175.428L159.262 40.7487L143.096 10.4381H135.014V59.8833H24.759ZM50.7756 8.41742L30.5685 50.8522H39.6617L50.7756 27.6141L61.8894 50.8522H70.9826L50.7756 8.41742ZM113.417 42.7694H81.0861V10.4381H73.0033V50.8522H113.417V42.7694ZM117.901 50.8522H125.984V10.4381H117.901V50.8522Z" fill="#1992E2" fill-opacity="0.79"/>
<path opacity="0.64" d="M68.1123 14.1135C67.587 12.6425 66.808 11.727 65.7302 11.4632C64.6397 11.1963 63.4637 11.7139 62.6642 12.619C62.0135 13.3726 61.6995 14.034 61.5754 14.6749C61.3669 15.7514 61.8801 16.7362 62.6971 17.661C61.1564 18.8277 60.3381 20.1041 60.0725 21.4754C59.4471 24.7052 61.6368 26.7715 64.7689 27.538C65.3014 27.6684 65.8263 27.77 66.3253 27.731C67.3932 27.4286 68.5464 26.892 69.7952 26.2042L69.6621 25.8629C68.7295 25.8092 67.7636 25.6533 66.7872 25.4143C63.0591 24.5019 61.1765 22.5645 61.4892 20.9496C61.7448 19.6295 64.2361 18.5612 68.496 18.1675C68.9087 17.4764 69.2655 16.7315 69.6071 15.9962L69.5002 15.8627C66.9552 16.1795 65.4316 16.5717 65.0892 16.4879C64.7848 16.4135 64.3603 16.0679 63.9276 15.5593C63.4946 14.9835 63.1503 14.4294 63.2297 14.0192C63.2818 13.7501 64.7187 13.1889 65.9994 13.5024C66.57 13.642 67.1387 13.9289 67.6627 14.4464L68.1123 14.1135Z" fill="#48A7E6"/>
</svg>
