<svg width="30" height="31" viewBox="0 0 30 31" fill="none" xmlns="http://www.w3.org/2000/svg">
<g clip-path="url(#clip0_105_88)">
<path d="M21.6747 0.652031H3.31107V30.4287H26.6368V5.61419L21.6747 0.652031Z" fill="#E8E8E8"/>
<path d="M22.6756 15.3774C22.3178 14.7398 21.0815 14.5394 20.5143 14.4492C20.0673 14.3781 19.6109 14.3569 19.1587 14.3573C18.8037 14.355 18.4538 14.3724 18.1085 14.3921C17.9812 14.4006 17.8552 14.4116 17.7293 14.4225C17.6003 14.289 17.4755 14.151 17.3548 14.0098C16.5868 13.1007 15.9667 12.0697 15.4614 10.9983C15.5956 10.4806 15.7029 9.94033 15.7677 9.37925C15.8861 8.35519 15.9267 7.18814 15.543 6.21181C15.4105 5.87484 15.0573 5.46461 14.6497 5.66889C14.1811 5.90382 14.0493 6.5694 14.0111 7.04121C13.9804 7.42257 14.0019 7.80491 14.0659 8.17988C14.1311 8.55741 14.2361 8.91588 14.3504 9.27386C14.4571 9.60209 14.5746 9.92776 14.7028 10.2504C14.6215 10.5044 14.5352 10.7539 14.4445 10.9971C14.2332 11.5513 14.0046 12.0778 13.7848 12.5843C13.6689 12.8354 13.5555 13.0812 13.4445 13.3216C13.0933 14.093 12.7121 14.8503 12.2841 15.5824C11.286 15.9345 10.3903 16.3427 9.64647 16.8223C9.24743 17.0801 8.89495 17.3602 8.60139 17.6673C8.32424 17.9572 8.04257 18.3334 8.01791 18.75C8.00407 18.9851 8.09717 19.2132 8.28977 19.3527C8.55464 19.5506 8.90565 19.5374 9.21296 19.473C10.2196 19.2618 10.9927 18.3965 11.651 17.6672C12.1044 17.1648 12.6205 16.5269 13.1604 15.7555C13.1616 15.7537 13.1628 15.7519 13.164 15.7502C14.09 15.4631 15.0977 15.2207 16.1673 15.0425C16.6559 14.9615 17.1574 14.8952 17.669 14.8487C18.0288 15.1856 18.4175 15.4925 18.8416 15.7487C19.1719 15.9519 19.5232 16.1235 19.8909 16.2514C20.2627 16.3729 20.6368 16.4721 21.0231 16.5349C21.2181 16.5628 21.4176 16.5754 21.6214 16.5678C22.0762 16.5506 22.729 16.3762 22.7718 15.8243C22.785 15.6554 22.7485 15.5073 22.6756 15.3774ZM11.7869 16.39C11.5739 16.72 11.3684 17.0168 11.1748 17.2779C10.7008 17.923 10.1593 18.6892 9.3754 18.9756C9.22651 19.0301 9.03048 19.0862 8.82384 19.074C8.63979 19.0632 8.4583 18.982 8.46664 18.773C8.47077 18.6636 8.5243 18.5241 8.6064 18.387C8.69626 18.2366 8.80754 18.0987 8.92805 17.9719C9.18624 17.7007 9.5127 17.4377 9.88826 17.1943C10.4643 16.8206 11.152 16.4842 11.9185 16.1841C11.8744 16.2538 11.8304 16.3231 11.7869 16.39ZM14.4604 8.11467C14.4013 7.76955 14.3924 7.41962 14.4287 7.08315C14.4468 6.91491 14.4811 6.7507 14.5306 6.5968C14.5727 6.46618 14.6634 6.14738 14.8082 6.10643C15.0468 6.03886 15.1202 6.55123 15.1472 6.69619C15.301 7.52078 15.1655 8.43779 14.9809 9.24666C14.9516 9.37532 14.9189 9.50191 14.8854 9.62802C14.8282 9.47078 14.7737 9.31305 14.7235 9.15454C14.6155 8.80834 14.5167 8.45812 14.4604 8.11467ZM16.0989 14.6242C15.2022 14.7695 14.3493 14.9599 13.5474 15.1848C13.644 15.1577 14.0852 14.3217 14.1836 14.1481C14.6472 13.3315 15.0265 12.4744 15.2991 11.5753C15.7803 12.527 16.3644 13.4376 17.0819 14.248C17.148 14.3216 17.2152 14.3942 17.2835 14.466C16.8814 14.5094 16.4858 14.5621 16.0989 14.6242ZM22.1629 15.7727C22.1301 15.9499 21.7515 16.0513 21.5748 16.0792C21.0527 16.1613 20.5004 16.0956 20.0007 15.9277C19.6578 15.8126 19.3271 15.6559 19.0129 15.4673C18.7006 15.2786 18.4085 15.0567 18.1353 14.8119C18.4721 14.7917 18.813 14.7785 19.1555 14.7849C19.4981 14.7884 19.8433 14.8057 20.1843 14.8501C20.8238 14.9214 21.5403 15.141 22.0437 15.5559C22.1428 15.6377 22.1744 15.71 22.1629 15.7727Z" fill="#3498DB"/>
<path d="M22.4426 3.13316H3.31107V0.652031H21.6747L22.4426 3.13316Z" fill="#3498DB"/>
<path d="M12.5428 24.3361C12.5428 24.8626 12.3877 25.2692 12.0771 25.5559C11.7666 25.8428 11.3256 25.9862 10.754 25.9862H10.3962V27.5495H9.12319V22.8373H10.7541C11.3493 22.8373 11.7962 22.9674 12.0949 23.2273C12.3935 23.4873 12.5428 23.8569 12.5428 24.3361ZM10.3963 24.9484H10.6284C10.8196 24.9484 10.9716 24.8948 11.0845 24.7872C11.1973 24.6798 11.2537 24.5315 11.2537 24.3424C11.2537 24.0244 11.0775 23.8654 10.7251 23.8654H10.3963V24.9484Z" fill="#08324E"/>
<path d="M17.2937 25.0935C17.2937 25.8799 17.0772 26.4858 16.6443 26.9113C16.2114 27.3368 15.6026 27.5495 14.8184 27.5495H13.2939V22.8374H14.9248C15.6811 22.8374 16.265 23.0307 16.6765 23.4175C17.0879 23.8043 17.2937 24.363 17.2937 25.0935ZM15.9723 25.1387C15.9723 24.7067 15.8869 24.3867 15.7161 24.1782C15.5453 23.9697 15.2858 23.8655 14.9376 23.8655H14.5671V26.5052H14.8507C15.2376 26.5052 15.5211 26.3929 15.7016 26.1683C15.882 25.9439 15.9723 25.6007 15.9723 25.1387Z" fill="#08324E"/>
<path d="M19.3919 27.5495H18.1382V22.8374H20.923V23.8591H19.3919V24.7583H20.8036V25.78H19.3919V27.5495Z" fill="#08324E"/>
<path d="M21.6746 5.61419H26.6368L21.6746 0.652031V5.61419Z" fill="#D1D3D3"/>
</g>
<defs>
<clipPath id="clip0_105_88">
<rect width="29.7767" height="29.7767" fill="white" transform="translate(0.08564 0.652039)"/>
</clipPath>
</defs>
</svg>
