<svg width="35" height="36" viewBox="0 0 35 36" fill="none" xmlns="http://www.w3.org/2000/svg">
<g clip-path="url(#clip0_105_81)">
<path d="M33.168 24.2498H2.35221C1.38576 24.2498 0.599457 23.4638 0.599457 22.4975V5.92773C0.599457 4.96149 1.38576 4.1754 2.35221 4.1754H33.168C34.1341 4.1754 34.9205 4.96149 34.9205 5.92773V22.4975C34.9205 23.4638 34.1341 24.2498 33.168 24.2498ZM2.35221 5.5909C2.16632 5.5909 2.01482 5.74198 2.01482 5.92773V22.4975C2.01482 22.6833 2.16632 22.8344 2.35221 22.8344H33.168C33.3538 22.8344 33.5051 22.6833 33.5051 22.4975V5.92773C33.5051 5.74198 33.3539 5.5909 33.168 5.5909H2.35221Z" fill="#3498DB"/>
<path d="M14.096 19.5911C13.8636 19.4639 13.7125 19.227 13.7125 18.9622V9.46306C13.7125 9.19815 13.8605 8.95559 14.096 8.83407C14.3314 8.71262 14.6146 8.73286 14.8305 8.88639L21.5097 13.6359C21.6965 13.7687 21.8072 13.9836 21.8072 14.2127C21.8072 14.4418 21.6965 14.6567 21.5097 14.7895C21.5097 14.7895 16.5 18.3514 14.8305 19.5389C14.7085 19.6257 14.4455 19.7823 14.096 19.5911ZM15.1281 10.8348V17.5905L19.8782 14.2127L15.1281 10.8348Z" fill="#3498DB"/>
<path d="M34.2129 28.2672H20.6855C20.3713 27.0639 19.275 26.1734 17.9747 26.1734C16.6744 26.1734 15.5784 27.0639 15.2642 28.2672H1.30716C0.916386 28.2672 0.599442 28.5842 0.599442 28.9749C0.599442 29.3659 0.916386 29.6827 1.30716 29.6827H15.2643C15.5785 30.886 16.6746 31.7767 17.9747 31.7767C19.2751 31.7767 20.3714 30.8859 20.6855 29.6827H34.2129C34.6033 29.6827 34.9205 29.3659 34.9205 28.9749C34.9205 28.5842 34.6033 28.2672 34.2129 28.2672ZM17.9747 30.3611C17.2106 30.3611 16.5886 29.7393 16.5886 28.9749C16.5886 28.2106 17.2106 27.5889 17.9747 27.5889C18.739 27.5889 19.3609 28.2106 19.3609 28.9749C19.3609 29.7393 18.739 30.3611 17.9747 30.3611Z" fill="#3498DB"/>
</g>
<defs>
<clipPath id="clip0_105_81">
<rect width="34.3211" height="34.3211" fill="white" transform="translate(0.599472 0.815491)"/>
</clipPath>
</defs>
</svg>
