<svg width="24" height="24" viewBox="0 0 24 24" fill="none" xmlns="http://www.w3.org/2000/svg">
<path fill-rule="evenodd" clip-rule="evenodd" d="M14.0966 13.0313C11.5012 14.9737 7.78242 14.5539 5.77305 12.2515C3.76368 9.94916 4.10063 6.49397 6.69601 4.55153C9.29139 2.60909 13.0102 3.02889 15.0195 5.33127C17.0289 7.63365 16.692 11.0888 14.0966 13.0313ZM14.9679 16.4977C11.0142 18.5146 5.94922 17.6817 3.01297 14.3173C-0.282597 10.5411 0.351452 5.00595 4.42915 1.95411C8.50686 -1.09773 14.4841 -0.510574 17.7796 3.26556C20.7159 6.62999 20.5327 11.3908 17.5738 14.5474L22.9144 20.6669C23.5054 21.3441 23.4012 22.3296 22.6816 22.8682C21.962 23.4068 20.8996 23.2944 20.3085 22.6172L14.9679 16.4977Z" fill="#CAD4E0"/>
</svg>
