<svg width="0" height="0" class="hidden">
  <symbol fill="none" xmlns="http://www.w3.org/2000/svg" viewBox="0 0 36 36" id="NEXT">
    <g filter="url(#filter0_diii_42_328)">
      <path fill-rule="evenodd" clip-rule="evenodd" d="M15.685 23.5893C15.2718 23.1876 15.2718 22.5363 15.685 22.1346L17.4366 20.4317C18.9649 18.9459 18.9649 16.4916 17.4366 15.0058L15.685 13.3029C15.2718 12.9012 15.2718 12.2499 15.685 11.8482C16.0982 11.4464 16.7681 11.4464 17.1813 11.8482L22.4715 16.9914C22.8847 17.3931 22.8847 18.0444 22.4715 18.4461L17.1813 23.5893C16.7681 23.9911 16.0982 23.9911 15.685 23.5893Z" fill="black"></path>
    </g>
    <circle cx="17.8439" cy="17.7187" r="17.2813" transform="rotate(180 17.8439 17.7187)" fill="url(#paint0_linear_42_328)" fill-opacity="0.45"></circle>
    <defs>
      <filter id="filter0_diii_42_328" x="7.80766" y="7.76314" width="22.5412" height="27.4787" filterUnits="userSpaceOnUse" color-interpolation-filters="sRGB">
        <feFlood flood-opacity="0" result="BackgroundImageFix"></feFlood>
        <feColorMatrix in="SourceAlpha" type="matrix" values="0 0 0 0 0 0 0 0 0 0 0 0 0 0 0 0 0 0 127 0" result="hardAlpha"></feColorMatrix>
        <feOffset dy="3.78373"></feOffset>
        <feGaussianBlur stdDeviation="3.78373"></feGaussianBlur>
        <feColorMatrix type="matrix" values="0 0 0 0 0 0 0 0 0 0 0 0 0 0 0 0 0 0 0.15 0"></feColorMatrix>
        <feBlend mode="normal" in2="BackgroundImageFix" result="effect1_dropShadow_42_328"></feBlend>
        <feBlend mode="normal" in="SourceGraphic" in2="effect1_dropShadow_42_328" result="shape"></feBlend>
        <feColorMatrix in="SourceAlpha" type="matrix" values="0 0 0 0 0 0 0 0 0 0 0 0 0 0 0 0 0 0 127 0" result="hardAlpha"></feColorMatrix>
        <feOffset dy="3.78373"></feOffset>
        <feGaussianBlur stdDeviation="1.89187"></feGaussianBlur>
        <feComposite in2="hardAlpha" operator="arithmetic" k2="-1" k3="1"></feComposite>
        <feColorMatrix type="matrix" values="0 0 0 0 1 0 0 0 0 1 0 0 0 0 1 0 0 0 0.65 0"></feColorMatrix>
        <feBlend mode="normal" in2="shape" result="effect2_innerShadow_42_328"></feBlend>
        <feColorMatrix in="SourceAlpha" type="matrix" values="0 0 0 0 0 0 0 0 0 0 0 0 0 0 0 0 0 0 127 0" result="hardAlpha"></feColorMatrix>
        <feOffset dy="-3.78373"></feOffset>
        <feGaussianBlur stdDeviation="1.89187"></feGaussianBlur>
        <feComposite in2="hardAlpha" operator="arithmetic" k2="-1" k3="1"></feComposite>
        <feColorMatrix type="matrix" values="0 0 0 0 0 0 0 0 0 0 0 0 0 0 0 0 0 0 0.42 0"></feColorMatrix>
        <feBlend mode="normal" in2="effect2_innerShadow_42_328" result="effect3_innerShadow_42_328"></feBlend>
        <feColorMatrix in="SourceAlpha" type="matrix" values="0 0 0 0 0 0 0 0 0 0 0 0 0 0 0 0 0 0 127 0" result="hardAlpha"></feColorMatrix>
        <feOffset dy="1.89187"></feOffset>
        <feGaussianBlur stdDeviation="0.945933"></feGaussianBlur>
        <feComposite in2="hardAlpha" operator="arithmetic" k2="-1" k3="1"></feComposite>
        <feColorMatrix type="matrix" values="0 0 0 0 1 0 0 0 0 1 0 0 0 0 1 0 0 0 0.45 0"></feColorMatrix>
        <feBlend mode="normal" in2="effect3_innerShadow_42_328" result="effect4_innerShadow_42_328"></feBlend>
      </filter>
      <linearGradient id="paint0_linear_42_328" x1="17.8439" y1="0.437496" x2="17.8439" y2="35" gradientUnits="userSpaceOnUse">
        <stop stop-color="#5FCCF5" stop-opacity="0.69"></stop>
        <stop offset="1" stop-color="#3B4450" stop-opacity="0.51"></stop>
      </linearGradient>
    </defs>
  </symbol>
  <symbol fill="none" xmlns="http://www.w3.org/2000/svg" viewBox="0 0 30 31" id="pdf-icon 2">
    <g clip-path="url(#clip0_105_88)">
      <path d="M21.6747 0.652031H3.31107V30.4287H26.6368V5.61419L21.6747 0.652031Z" fill="#E8E8E8"></path>
      <path d="M22.6756 15.3774C22.3178 14.7398 21.0815 14.5394 20.5143 14.4492C20.0673 14.3781 19.6109 14.3569 19.1587 14.3573C18.8037 14.355 18.4538 14.3724 18.1085 14.3921C17.9812 14.4006 17.8552 14.4116 17.7293 14.4225C17.6003 14.289 17.4755 14.151 17.3548 14.0098C16.5868 13.1007 15.9667 12.0697 15.4614 10.9983C15.5956 10.4806 15.7029 9.94033 15.7677 9.37925C15.8861 8.35519 15.9267 7.18814 15.543 6.21181C15.4105 5.87484 15.0573 5.46461 14.6497 5.66889C14.1811 5.90382 14.0493 6.5694 14.0111 7.04121C13.9804 7.42257 14.0019 7.80491 14.0659 8.17988C14.1311 8.55741 14.2361 8.91588 14.3504 9.27386C14.4571 9.60209 14.5746 9.92776 14.7028 10.2504C14.6215 10.5044 14.5352 10.7539 14.4445 10.9971C14.2332 11.5513 14.0046 12.0778 13.7848 12.5843C13.6689 12.8354 13.5555 13.0812 13.4445 13.3216C13.0933 14.093 12.7121 14.8503 12.2841 15.5824C11.286 15.9345 10.3903 16.3427 9.64647 16.8223C9.24743 17.0801 8.89495 17.3602 8.60139 17.6673C8.32424 17.9572 8.04257 18.3334 8.01791 18.75C8.00407 18.9851 8.09717 19.2132 8.28977 19.3527C8.55464 19.5506 8.90565 19.5374 9.21296 19.473C10.2196 19.2618 10.9927 18.3965 11.651 17.6672C12.1044 17.1648 12.6205 16.5269 13.1604 15.7555C13.1616 15.7537 13.1628 15.7519 13.164 15.7502C14.09 15.4631 15.0977 15.2207 16.1673 15.0425C16.6559 14.9615 17.1574 14.8952 17.669 14.8487C18.0288 15.1856 18.4175 15.4925 18.8416 15.7487C19.1719 15.9519 19.5232 16.1235 19.8909 16.2514C20.2627 16.3729 20.6368 16.4721 21.0231 16.5349C21.2181 16.5628 21.4176 16.5754 21.6214 16.5678C22.0762 16.5506 22.729 16.3762 22.7718 15.8243C22.785 15.6554 22.7485 15.5073 22.6756 15.3774ZM11.7869 16.39C11.5739 16.72 11.3684 17.0168 11.1748 17.2779C10.7008 17.923 10.1593 18.6892 9.3754 18.9756C9.22651 19.0301 9.03048 19.0862 8.82384 19.074C8.63979 19.0632 8.4583 18.982 8.46664 18.773C8.47077 18.6636 8.5243 18.5241 8.6064 18.387C8.69626 18.2366 8.80754 18.0987 8.92805 17.9719C9.18624 17.7007 9.5127 17.4377 9.88826 17.1943C10.4643 16.8206 11.152 16.4842 11.9185 16.1841C11.8744 16.2538 11.8304 16.3231 11.7869 16.39ZM14.4604 8.11467C14.4013 7.76955 14.3924 7.41962 14.4287 7.08315C14.4468 6.91491 14.4811 6.7507 14.5306 6.5968C14.5727 6.46618 14.6634 6.14738 14.8082 6.10643C15.0468 6.03886 15.1202 6.55123 15.1472 6.69619C15.301 7.52078 15.1655 8.43779 14.9809 9.24666C14.9516 9.37532 14.9189 9.50191 14.8854 9.62802C14.8282 9.47078 14.7737 9.31305 14.7235 9.15454C14.6155 8.80834 14.5167 8.45812 14.4604 8.11467ZM16.0989 14.6242C15.2022 14.7695 14.3493 14.9599 13.5474 15.1848C13.644 15.1577 14.0852 14.3217 14.1836 14.1481C14.6472 13.3315 15.0265 12.4744 15.2991 11.5753C15.7803 12.527 16.3644 13.4376 17.0819 14.248C17.148 14.3216 17.2152 14.3942 17.2835 14.466C16.8814 14.5094 16.4858 14.5621 16.0989 14.6242ZM22.1629 15.7727C22.1301 15.9499 21.7515 16.0513 21.5748 16.0792C21.0527 16.1613 20.5004 16.0956 20.0007 15.9277C19.6578 15.8126 19.3271 15.6559 19.0129 15.4673C18.7006 15.2786 18.4085 15.0567 18.1353 14.8119C18.4721 14.7917 18.813 14.7785 19.1555 14.7849C19.4981 14.7884 19.8433 14.8057 20.1843 14.8501C20.8238 14.9214 21.5403 15.141 22.0437 15.5559C22.1428 15.6377 22.1744 15.71 22.1629 15.7727Z" fill="#3498DB"></path>
      <path d="M22.4426 3.13316H3.31107V0.652031H21.6747L22.4426 3.13316Z" fill="#3498DB"></path>
      <path d="M12.5428 24.3361C12.5428 24.8626 12.3877 25.2692 12.0771 25.5559C11.7666 25.8428 11.3256 25.9862 10.754 25.9862H10.3962V27.5495H9.12319V22.8373H10.7541C11.3493 22.8373 11.7962 22.9674 12.0949 23.2273C12.3935 23.4873 12.5428 23.8569 12.5428 24.3361ZM10.3963 24.9484H10.6284C10.8196 24.9484 10.9716 24.8948 11.0845 24.7872C11.1973 24.6798 11.2537 24.5315 11.2537 24.3424C11.2537 24.0244 11.0775 23.8654 10.7251 23.8654H10.3963V24.9484Z" fill="#08324E"></path>
      <path d="M17.2937 25.0935C17.2937 25.8799 17.0772 26.4858 16.6443 26.9113C16.2114 27.3368 15.6026 27.5495 14.8184 27.5495H13.2939V22.8374H14.9248C15.6811 22.8374 16.265 23.0307 16.6765 23.4175C17.0879 23.8043 17.2937 24.363 17.2937 25.0935ZM15.9723 25.1387C15.9723 24.7067 15.8869 24.3867 15.7161 24.1782C15.5453 23.9697 15.2858 23.8655 14.9376 23.8655H14.5671V26.5052H14.8507C15.2376 26.5052 15.5211 26.3929 15.7016 26.1683C15.882 25.9439 15.9723 25.6007 15.9723 25.1387Z" fill="#08324E"></path>
      <path d="M19.3919 27.5495H18.1382V22.8374H20.923V23.8591H19.3919V24.7583H20.8036V25.78H19.3919V27.5495Z" fill="#08324E"></path>
      <path d="M21.6746 5.61419H26.6368L21.6746 0.652031V5.61419Z" fill="#D1D3D3"></path>
    </g>
    <defs>
      <clipPath id="clip0_105_88">
        <rect width="29.7767" height="29.7767" fill="white" transform="translate(0.08564 0.652039)"></rect>
      </clipPath>
    </defs>
  </symbol>
  <symbol fill="none" xmlns="http://www.w3.org/2000/svg" viewBox="0 0 35 36" id="play media 2">
    <g clip-path="url(#clip0_105_81)">
      <path d="M33.168 24.2498H2.35221C1.38576 24.2498 0.599457 23.4638 0.599457 22.4975V5.92773C0.599457 4.96149 1.38576 4.1754 2.35221 4.1754H33.168C34.1341 4.1754 34.9205 4.96149 34.9205 5.92773V22.4975C34.9205 23.4638 34.1341 24.2498 33.168 24.2498ZM2.35221 5.5909C2.16632 5.5909 2.01482 5.74198 2.01482 5.92773V22.4975C2.01482 22.6833 2.16632 22.8344 2.35221 22.8344H33.168C33.3538 22.8344 33.5051 22.6833 33.5051 22.4975V5.92773C33.5051 5.74198 33.3539 5.5909 33.168 5.5909H2.35221Z" fill="#3498DB"></path>
      <path d="M14.096 19.5911C13.8636 19.4639 13.7125 19.227 13.7125 18.9622V9.46306C13.7125 9.19815 13.8605 8.95559 14.096 8.83407C14.3314 8.71262 14.6146 8.73286 14.8305 8.88639L21.5097 13.6359C21.6965 13.7687 21.8072 13.9836 21.8072 14.2127C21.8072 14.4418 21.6965 14.6567 21.5097 14.7895C21.5097 14.7895 16.5 18.3514 14.8305 19.5389C14.7085 19.6257 14.4455 19.7823 14.096 19.5911ZM15.1281 10.8348V17.5905L19.8782 14.2127L15.1281 10.8348Z" fill="#3498DB"></path>
      <path d="M34.2129 28.2672H20.6855C20.3713 27.0639 19.275 26.1734 17.9747 26.1734C16.6744 26.1734 15.5784 27.0639 15.2642 28.2672H1.30716C0.916386 28.2672 0.599442 28.5842 0.599442 28.9749C0.599442 29.3659 0.916386 29.6827 1.30716 29.6827H15.2643C15.5785 30.886 16.6746 31.7767 17.9747 31.7767C19.2751 31.7767 20.3714 30.8859 20.6855 29.6827H34.2129C34.6033 29.6827 34.9205 29.3659 34.9205 28.9749C34.9205 28.5842 34.6033 28.2672 34.2129 28.2672ZM17.9747 30.3611C17.2106 30.3611 16.5886 29.7393 16.5886 28.9749C16.5886 28.2106 17.2106 27.5889 17.9747 27.5889C18.739 27.5889 19.3609 28.2106 19.3609 28.9749C19.3609 29.7393 18.739 30.3611 17.9747 30.3611Z" fill="#3498DB"></path>
    </g>
    <defs>
      <clipPath id="clip0_105_81">
        <rect width="34.3211" height="34.3211" fill="white" transform="translate(0.599472 0.815491)"></rect>
      </clipPath>
    </defs>
  </symbol>
  <symbol fill="none" xmlns="http://www.w3.org/2000/svg" viewBox="0 0 35 35" id="previous">
    <g filter="url(#filter0_diii_42_325)">
      <path fill-rule="evenodd" clip-rule="evenodd" d="M19.4401 11.4107C19.8533 11.8124 19.8533 12.4637 19.4401 12.8654L17.6885 14.5683C16.1603 16.0541 16.1603 18.5084 17.6885 19.9942L19.4401 21.6971C19.8533 22.0988 19.8533 22.7501 19.4401 23.1518C19.0269 23.5536 18.357 23.5536 17.9438 23.1518L12.6536 18.0086C12.2405 17.6069 12.2405 16.9556 12.6536 16.5539L17.9438 11.4107C18.357 11.0089 19.0269 11.0089 19.4401 11.4107Z" fill="black"></path>
    </g>
    <circle cx="17.2813" cy="17.2813" r="17.2813" fill="url(#paint0_linear_42_325)" fill-opacity="0.45"></circle>
    <defs>
      <filter id="filter0_diii_42_325" x="4.77628" y="7.32564" width="22.5412" height="27.4787" filterUnits="userSpaceOnUse" color-interpolation-filters="sRGB">
        <feFlood flood-opacity="0" result="BackgroundImageFix"></feFlood>
        <feColorMatrix in="SourceAlpha" type="matrix" values="0 0 0 0 0 0 0 0 0 0 0 0 0 0 0 0 0 0 127 0" result="hardAlpha"></feColorMatrix>
        <feOffset dy="3.78373"></feOffset>
        <feGaussianBlur stdDeviation="3.78373"></feGaussianBlur>
        <feColorMatrix type="matrix" values="0 0 0 0 0 0 0 0 0 0 0 0 0 0 0 0 0 0 0.15 0"></feColorMatrix>
        <feBlend mode="normal" in2="BackgroundImageFix" result="effect1_dropShadow_42_325"></feBlend>
        <feBlend mode="normal" in="SourceGraphic" in2="effect1_dropShadow_42_325" result="shape"></feBlend>
        <feColorMatrix in="SourceAlpha" type="matrix" values="0 0 0 0 0 0 0 0 0 0 0 0 0 0 0 0 0 0 127 0" result="hardAlpha"></feColorMatrix>
        <feOffset dy="3.78373"></feOffset>
        <feGaussianBlur stdDeviation="1.89187"></feGaussianBlur>
        <feComposite in2="hardAlpha" operator="arithmetic" k2="-1" k3="1"></feComposite>
        <feColorMatrix type="matrix" values="0 0 0 0 1 0 0 0 0 1 0 0 0 0 1 0 0 0 0.65 0"></feColorMatrix>
        <feBlend mode="normal" in2="shape" result="effect2_innerShadow_42_325"></feBlend>
        <feColorMatrix in="SourceAlpha" type="matrix" values="0 0 0 0 0 0 0 0 0 0 0 0 0 0 0 0 0 0 127 0" result="hardAlpha"></feColorMatrix>
        <feOffset dy="-3.78373"></feOffset>
        <feGaussianBlur stdDeviation="1.89187"></feGaussianBlur>
        <feComposite in2="hardAlpha" operator="arithmetic" k2="-1" k3="1"></feComposite>
        <feColorMatrix type="matrix" values="0 0 0 0 0 0 0 0 0 0 0 0 0 0 0 0 0 0 0.42 0"></feColorMatrix>
        <feBlend mode="normal" in2="effect2_innerShadow_42_325" result="effect3_innerShadow_42_325"></feBlend>
        <feColorMatrix in="SourceAlpha" type="matrix" values="0 0 0 0 0 0 0 0 0 0 0 0 0 0 0 0 0 0 127 0" result="hardAlpha"></feColorMatrix>
        <feOffset dy="1.89187"></feOffset>
        <feGaussianBlur stdDeviation="0.945933"></feGaussianBlur>
        <feComposite in2="hardAlpha" operator="arithmetic" k2="-1" k3="1"></feComposite>
        <feColorMatrix type="matrix" values="0 0 0 0 1 0 0 0 0 1 0 0 0 0 1 0 0 0 0.45 0"></feColorMatrix>
        <feBlend mode="normal" in2="effect3_innerShadow_42_325" result="effect4_innerShadow_42_325"></feBlend>
      </filter>
      <linearGradient id="paint0_linear_42_325" x1="17.2813" y1="0" x2="17.2813" y2="34.5625" gradientUnits="userSpaceOnUse">
        <stop stop-color="#5FCCF5" stop-opacity="0.69"></stop>
        <stop offset="1" stop-color="#3B4450" stop-opacity="0.51"></stop>
      </linearGradient>
    </defs>
  </symbol>
  <symbol fill="none" xmlns="http://www.w3.org/2000/svg" viewBox="0 0 13 9" id="vee-icon">
    <path fill-rule="evenodd" clip-rule="evenodd" d="M7.02185 8.59223C6.77003 8.76713 6.4393 8.72827 6.22254 8.47567L0.957886 2.3405C0.701721 2.04198 0.701721 1.55798 0.957886 1.25946C1.21405 0.960934 1.62938 0.960934 1.88554 1.25946L6.7303 6.90529L11.6419 1.18159C11.898 0.883072 12.3134 0.883072 12.5695 1.18159C12.8257 1.48012 12.8257 1.96412 12.5695 2.26264L7.30487 8.3978C7.22325 8.49291 7.12549 8.55772 7.02185 8.59223Z" fill="black"></path>
  </symbol>
  <symbol fill="none" xmlns="http://www.w3.org/2000/svg" viewBox="0 0 13 14" id="+">
    <path d="M12.421 5.49609V8.4375H0.725647V5.49609H12.421ZM8.17877 0.867188V13.2891H4.97955V0.867188H8.17877Z" fill="white"></path>
  </symbol>
  <symbol version="1.1" xmlns="http://www.w3.org/2000/svg" viewBox="0 0 20 20" id="attachment">
    <title>attachment</title>
    <path d="M5.602 19.8c-1.293 0-2.504-0.555-3.378-1.44-1.695-1.716-2.167-4.711 0.209-7.116 1.391-1.408 6.966-7.053 9.748-9.87 0.988-1 2.245-1.387 3.448-1.060 1.183 0.32 2.151 1.301 2.468 2.498 0.322 1.22-0.059 2.493-1.046 3.493l-9.323 9.44c-0.532 0.539-1.134 0.858-1.738 0.922-0.599 0.064-1.17-0.13-1.57-0.535-0.724-0.736-0.828-2.117 0.378-3.337l6.548-6.63c0.269-0.272 0.705-0.272 0.974 0s0.269 0.714 0 0.986l-6.549 6.631c-0.566 0.572-0.618 1.119-0.377 1.364 0.106 0.106 0.266 0.155 0.451 0.134 0.283-0.029 0.606-0.216 0.909-0.521l9.323-9.439c0.64-0.648 0.885-1.41 0.69-2.145-0.192-0.725-0.778-1.318-1.493-1.513-0.726-0.197-1.48 0.052-2.12 0.7-2.782 2.818-8.356 8.462-9.748 9.87-1.816 1.839-1.381 3.956-0.209 5.143 1.173 1.187 3.262 1.629 5.079-0.212l9.748-9.87c0.269-0.272 0.705-0.272 0.974 0s0.269 0.714 0 0.987l-9.748 9.87c-1.149 1.162-2.436 1.65-3.648 1.65z"></path>
  </symbol>
  <symbol version="1.1" xmlns="http://www.w3.org/2000/svg" viewBox="0 0 20 20" id="chevron-down">
    <title>chevron-down</title>
    <path d="M4.516 7.548c0.436-0.446 1.043-0.481 1.576 0l3.908 3.747 3.908-3.747c0.533-0.481 1.141-0.446 1.574 0 0.436 0.445 0.408 1.197 0 1.615-0.406 0.418-4.695 4.502-4.695 4.502-0.217 0.223-0.502 0.335-0.787 0.335s-0.57-0.112-0.789-0.335c0 0-4.287-4.084-4.695-4.502s-0.436-1.17 0-1.615z"></path>
  </symbol>
  <symbol fill="none" xmlns="http://www.w3.org/2000/svg" viewBox="0 0 199 68" id="logo-new">
    <title>logo-newn</title>
    <path fill-rule="evenodd" clip-rule="evenodd" d="M24.759 59.8833V18.5209H40.9246V10.4381H0.510559V18.5209H16.6762V67.0178H18.5125C18.6482 67.1954 18.8622 67.31 19.1029 67.31H154.114C154.524 67.31 154.857 66.9775 154.857 66.5673V60.626C154.857 60.2158 154.524 59.8833 154.114 59.8833H143.096V26.6038L155.221 50.8522H163.304L175.428 26.6038V50.8522H183.511V10.4381H175.428L159.262 40.7487L143.096 10.4381H135.014V59.8833H24.759ZM50.7756 8.41742L30.5685 50.8522H39.6617L50.7756 27.6141L61.8894 50.8522H70.9826L50.7756 8.41742ZM113.417 42.7694H81.0861V10.4381H73.0033V50.8522H113.417V42.7694ZM117.901 50.8522H125.984V10.4381H117.901V50.8522Z" fill="#1992E2" fill-opacity="0.79"></path>
    <path opacity="0.64" d="M68.1123 14.1135C67.587 12.6425 66.808 11.727 65.7302 11.4632C64.6397 11.1963 63.4637 11.7139 62.6642 12.619C62.0135 13.3726 61.6995 14.034 61.5754 14.6749C61.3669 15.7514 61.8801 16.7362 62.6971 17.661C61.1564 18.8277 60.3381 20.1041 60.0725 21.4754C59.4471 24.7052 61.6368 26.7715 64.7689 27.538C65.3014 27.6684 65.8263 27.77 66.3253 27.731C67.3932 27.4286 68.5464 26.892 69.7952 26.2042L69.6621 25.8629C68.7295 25.8092 67.7636 25.6533 66.7872 25.4143C63.0591 24.5019 61.1765 22.5645 61.4892 20.9496C61.7448 19.6295 64.2361 18.5612 68.496 18.1675C68.9087 17.4764 69.2655 16.7315 69.6071 15.9962L69.5002 15.8627C66.9552 16.1795 65.4316 16.5717 65.0892 16.4879C64.7848 16.4135 64.3603 16.0679 63.9276 15.5593C63.4946 14.9835 63.1503 14.4294 63.2297 14.0192C63.2818 13.7501 64.7187 13.1889 65.9994 13.5024C66.57 13.642 67.1387 13.9289 67.6627 14.4464L68.1123 14.1135Z" fill="#48A7E6"></path>
  </symbol>
  <symbol version="1.1" xmlns="http://www.w3.org/2000/svg" viewBox="0 0 20 20" id="magnifying-glass">
    <title>magnifying-glass</title>
    <path d="M17.545 15.467l-3.779-3.779c0.57-0.935 0.898-2.035 0.898-3.21 0-3.417-2.961-6.377-6.378-6.377s-6.186 2.769-6.186 6.186c0 3.416 2.961 6.377 6.377 6.377 1.137 0 2.2-0.309 3.115-0.844l3.799 3.801c0.372 0.371 0.975 0.371 1.346 0l0.943-0.943c0.371-0.371 0.236-0.84-0.135-1.211zM4.004 8.287c0-2.366 1.917-4.283 4.282-4.283s4.474 2.107 4.474 4.474c0 2.365-1.918 4.283-4.283 4.283s-4.473-2.109-4.473-4.474z"></path>
  </symbol>
</svg>