<svg width="94" height="94" viewBox="0 0 94 94" fill="none" xmlns="http://www.w3.org/2000/svg">
<g clip-path="url(#clip0_52_310)">
<path d="M72.6208 17.4915C71.8449 19.9197 68.2986 19.8772 69.3083 25.1478H72.6208H75.9333C76.943 19.8772 73.3967 19.9197 72.6208 17.4915ZM68.3395 25.8665V27.5853H76.902V25.8665H68.3395ZM69.3708 28.3665L68.3395 47.4603H72.3083L72.3708 51.3353H71.4645V67.9915H77.902L75.6208 28.3665H69.3708ZM42.9333 28.7103C39.1349 34.5749 21.8341 34.4184 26.777 47.1478H42.9333H59.0895C64.0325 34.4184 46.7316 34.5749 42.9333 28.7103ZM14.652 48.429V50.2103H71.2145V48.429H14.652ZM15.652 51.2103V67.8665H22.8083V61.3665V61.1165H22.8395C22.8519 60.959 22.8672 60.8193 22.902 60.679C23.4242 58.5745 26.3303 58.2959 27.0895 56.804C27.1401 56.9035 27.2087 56.9957 27.277 57.0852C28.3012 58.4278 31.154 58.7538 31.3395 61.1165C31.3526 61.2835 31.3549 61.4593 31.3395 61.6477V67.8665H38.3395V61.3665V61.1165H38.3707C38.4696 59.8564 39.3404 59.1807 40.2769 58.6165C41.2135 58.0523 42.2158 57.5997 42.6207 56.804C42.6713 56.9035 42.7399 56.9957 42.8082 57.0852C43.8324 58.4278 46.6852 58.7538 46.8707 61.1165C46.8838 61.2835 46.8861 61.4593 46.8707 61.6477V67.8665H54.4957V61.3665V61.1165H54.5269C54.6258 59.8564 55.4966 59.1807 56.4331 58.6165C57.3697 58.0523 58.372 57.5997 58.7769 56.804C58.8275 56.9035 58.8961 56.9957 58.9644 57.0852C59.9886 58.4278 62.8414 58.7538 63.0269 61.1165C63.04 61.2835 63.0423 61.4593 63.0269 61.6477V67.8665H70.2144V51.2103H15.6519H15.652Z" fill="white"/>
</g>
<defs>
<clipPath id="clip0_52_310">
<rect width="93.5642" height="93.5642" fill="white"/>
</clipPath>
</defs>
</svg>
