<svg width="94" height="94" viewBox="0 0 94 94" fill="none" xmlns="http://www.w3.org/2000/svg">
<g clip-path="url(#clip0_69_364)">
<path d="M58.1212 16.007L23.2774 22.6008C23.0856 22.6372 23.0195 22.8287 23.0899 23.007L23.3399 23.6008L25.8712 30.0383V30.0695C26.6664 32.4885 28.1007 36.0368 29.6837 39.757L37.6837 60.1008C37.7541 60.2792 37.9919 60.4185 38.1837 60.382L71.5899 53.9758L69.2462 59.7883L35.5899 66.1633C35.3981 66.1997 35.1916 66.0917 35.1212 65.9133L20.9337 29.9133L20.2149 30.0383C20.0231 30.0747 19.957 30.2662 20.0274 30.4445L34.6524 67.5695C34.7228 67.7479 34.9294 67.856 35.1212 67.8195L69.9649 61.1945C70.0448 61.1793 70.1092 61.1184 70.1524 61.0695C70.1574 61.0645 70.1798 61.0745 70.1836 61.0695V61.0383L73.3399 53.5383L73.2774 53.4758C73.2794 53.4339 73.2638 53.4266 73.2462 53.382L58.5899 16.257C58.5195 16.0787 58.313 15.9706 58.1212 16.007ZM22.7774 25.007L21.3399 28.6633L35.8399 65.1633L68.4024 58.8508L69.7774 55.382L37.5274 61.507C37.3356 61.5434 37.1603 61.4354 37.0899 61.257L22.7774 25.007ZM47.9649 27.382C47.9761 27.3456 48.4019 27.7887 48.8087 28.257C48.9764 28.4502 49.2258 28.7712 49.3087 28.9445L49.3399 29.0695L49.0586 28.9445L48.8086 28.8195L48.9336 29.1945C49.0441 29.5336 49.3023 30.1844 49.5899 30.8508C49.6518 30.9944 49.9752 31.747 50.3086 32.5383C50.642 33.3295 50.9621 34.1024 51.0274 34.257C51.0926 34.4117 51.2124 34.6648 51.2774 34.8195C51.3423 34.9743 51.5374 35.4317 51.7149 35.8508C51.8923 36.2699 52.0597 36.7096 52.0899 36.8195C52.2394 37.3645 52.1483 37.8855 51.8711 38.257C51.7162 38.4648 51.4224 38.7377 51.1836 38.882C51.0953 38.9353 51.0075 38.9612 50.9961 38.9758C50.9826 38.9932 51.0418 39.1431 51.1211 39.382C51.3801 40.1573 51.5332 41.0428 51.5274 41.6008C51.5224 42.1134 51.5224 42.0932 51.3086 41.382C51.1218 40.7605 50.9422 40.2837 50.6211 39.4758C50.4727 39.1024 50.4734 39.0861 50.4024 39.0695C49.9263 38.9583 49.7032 38.8809 49.4961 38.7883C49.1835 38.6486 48.8036 38.452 48.2149 38.1008C48.0489 38.0018 47.7998 37.845 47.6524 37.757C46.9893 37.3616 45.8714 36.8064 45.6524 36.757C45.525 36.7283 45.5704 36.7961 45.7774 36.9445C46.7386 37.635 47.1823 38.2698 47.2461 39.0383C47.2684 39.3066 47.2257 39.3942 47.0899 39.632C46.9689 39.844 46.8311 39.9987 46.5274 40.257C46.2157 40.5221 46.2121 40.5181 45.4649 40.9758C45.1086 41.194 44.7129 41.4531 44.5899 41.5383C43.932 41.9935 43.4722 42.5122 43.2149 43.0695L43.1212 43.257L43.1837 43.4758C43.4236 44.3469 43.9283 44.9511 44.5899 45.1633C44.9677 45.2845 45.6009 45.3172 46.0274 45.2258C46.3786 45.1505 47.0045 44.8892 47.1524 44.757C47.1779 44.7341 47.1836 44.6828 47.1836 44.632C47.1834 44.4351 47.2321 43.7792 47.2773 43.4758L47.3398 43.1633L47.0273 42.9758C46.7732 42.8136 46.7474 42.7535 46.746 42.6945C46.743 42.5417 46.8903 42.1481 46.9648 42.132C46.9856 42.128 47.0424 42.1504 47.0898 42.1633C47.1755 42.1866 47.1768 42.1663 47.3398 41.9133C47.6189 41.4803 47.8292 41.0817 47.9023 40.8195C47.9418 40.6778 47.9444 40.6539 47.8398 40.632C47.7095 40.6047 47.5809 40.4562 47.5585 40.2883C47.493 39.7959 47.7015 39.4984 47.9648 39.6945C48.0179 39.734 48.0883 39.7761 48.121 39.8195C48.1913 39.9127 48.2599 40.1755 48.2773 40.382C48.2893 40.5236 48.2713 40.5292 48.371 40.6008C48.497 40.6909 48.5682 40.7772 48.5585 40.882C48.5485 40.9918 48.4622 40.9867 48.3085 40.882L48.1835 40.7883L48.121 40.9133C48.0061 41.1486 47.5662 41.8883 47.4335 42.0695L47.3085 42.2258L47.5585 42.382C47.6884 42.4677 47.8019 42.5452 47.8085 42.5695C47.8268 42.6391 47.7814 42.7761 47.6523 43.1008C47.5224 43.4273 47.483 43.6844 47.4648 44.007C47.4535 44.2076 47.4628 44.5454 47.496 44.5383C47.6023 44.5153 48.6123 43.7019 48.9647 43.3508C49.284 43.0327 49.6388 42.5968 49.871 42.257C50.1483 41.8512 50.1474 41.8434 50.0585 41.7258C50.0351 41.6948 49.9373 41.5492 49.8397 41.4133C49.6454 41.1426 49.568 41.0511 49.0897 40.4758C48.9126 40.2628 48.655 39.9509 48.5272 39.7883L48.3085 39.507L48.2773 39.257C48.2625 39.0236 48.2873 38.8205 48.3398 38.7883C48.3542 38.7793 48.511 38.8762 48.6523 38.9758C48.7935 39.0754 49.0499 39.246 49.246 39.382C49.4421 39.5181 49.6218 39.6467 49.621 39.6633C49.618 39.7225 49.4912 39.7345 49.3398 39.6945C49.2554 39.6722 49.1609 39.6797 49.1523 39.6945C49.1278 39.7367 49.3681 40.0659 49.6835 40.4445C50.0936 40.9368 50.2041 41.0757 50.3085 41.382C50.4954 41.93 50.4214 42.4339 50.0585 43.0383C49.6747 43.6774 48.8504 44.4941 47.9023 45.1633C47.6222 45.3609 47.5936 45.3871 47.6523 45.6008C47.7435 45.9325 48.025 46.3268 48.2773 46.507C48.7419 46.839 49.1586 46.6817 49.6523 45.9758C49.8539 45.6875 50.0203 45.3787 50.3398 44.6633C50.9458 43.3059 51.2898 42.8672 52.5898 41.9133C53.0598 41.5684 53.0294 41.5749 53.2773 41.382C53.3769 41.3046 53.4888 41.2586 53.496 41.257C53.504 41.255 53.5756 41.2033 53.6523 41.132L53.7773 40.9758L53.6523 40.7258C53.3178 40.0844 53.1234 39.5022 53.121 39.1008C53.119 38.73 53.2267 38.378 53.4023 38.2258C53.4984 38.1425 53.798 38.0545 53.9335 38.0695C54.1566 38.0942 54.51 38.4285 54.746 38.8195C55.1478 39.4853 55.144 40.3165 54.7148 41.0383L54.5898 41.257L54.6835 41.3508C54.8284 41.4806 55.1104 41.6006 55.3085 41.632C55.5317 41.6674 55.9264 41.6169 56.1523 41.507C56.4198 41.3769 56.7589 41.0372 56.871 40.8195L56.9022 40.757L56.4335 39.5383C56.1748 38.8643 55.913 38.1561 55.8397 37.9758C55.4376 36.987 55.1862 36.3699 54.9335 35.757C54.8101 35.4582 54.3207 34.3164 54.1835 33.9758C54.072 33.6993 53.1668 31.4706 52.5272 29.9133C52.3821 29.5601 52.2534 29.2166 52.246 29.1633C52.2324 29.0684 52.3128 28.6384 52.3397 28.632C52.3903 28.6204 53.0041 29.3249 53.2147 29.632C53.3845 29.8796 53.6046 30.2616 53.6209 30.3195C53.646 30.406 53.4804 30.3444 53.3084 30.1945C53.1823 30.0846 53.1772 30.1008 53.2459 30.2883C53.2796 30.3791 53.4596 30.9133 53.6522 31.4445C53.9693 32.3195 54.128 32.684 54.8397 34.4445C54.9592 34.7405 55.1134 35.1463 55.1834 35.3195C55.2535 35.4928 55.4438 35.9274 55.5897 36.2883C55.7356 36.6492 55.9442 37.2398 56.0897 37.6008C56.425 38.4331 56.603 38.8021 56.7772 39.2258C56.879 39.4737 56.944 39.6675 57.0272 40.007C57.1755 40.6142 57.1922 40.9309 57.0897 41.3195C56.9939 41.6828 56.7751 41.9128 56.4022 42.132C56.1917 42.2558 56.136 42.2924 55.8709 42.3508C55.6443 42.4009 55.5269 42.4261 55.4022 42.4133C55.0999 42.3825 54.7797 42.163 54.4334 41.7883C54.3397 41.6869 54.2323 41.5975 54.2147 41.6008C54.1416 41.6144 53.4706 42.0848 52.9647 42.4758C52.4629 42.8636 51.8372 43.4073 51.6834 43.5695C51.3395 43.9324 51.041 44.4043 50.5272 45.507C50.3069 45.9797 50.0044 46.523 49.8397 46.7258C49.6215 46.9944 49.3695 47.1214 49.0272 47.1008C48.5163 47.0701 48.0138 46.7434 47.7147 46.257C47.5972 46.066 47.4274 45.755 47.4022 45.6633C47.3823 45.5916 47.3794 45.5717 47.0584 45.6945C46.6917 45.8348 46.1095 45.991 45.7772 46.0383C45.0421 46.1429 44.4414 45.9848 43.9647 45.5383C43.5827 45.1806 43.3336 44.7244 43.1209 44.0383C43.0475 43.803 42.9808 43.5872 42.9647 43.5695C42.943 43.5455 42.8911 43.5831 42.8084 43.6945C42.7475 43.7765 42.6568 43.9165 42.5897 44.007C42.4177 44.239 42.3203 44.3004 42.0897 44.3508C41.745 44.4256 41.4191 44.3656 41.0584 44.132C40.6756 43.8842 40.4053 43.5053 40.2772 43.0383C40.1736 42.661 40.1428 42.3125 40.1835 41.757C40.2158 41.3153 40.2244 41.2596 40.246 41.1008C40.2568 41.0217 40.251 40.9464 40.246 40.9445C40.241 40.9425 40.1793 40.9303 40.0897 40.9133C39.8645 40.8706 39.6185 40.7909 39.4022 40.6633C38.9707 40.4088 38.7726 40.1168 38.621 39.5695C38.4595 38.9877 38.4653 38.3531 38.6835 37.507L38.7772 37.1633L38.7147 37.0695C38.5864 36.8784 38.4638 36.6091 38.4334 36.382C38.3628 35.8561 38.4845 35.3429 38.8397 34.4445L38.9647 34.132L38.871 33.9758C38.7716 33.7431 38.7335 33.3777 38.746 33.0383C38.752 32.888 38.7711 32.7444 38.7772 32.7258C38.8182 32.5991 39.9777 31.5806 40.8084 30.9445C41.8797 30.1244 43.0732 29.3313 44.1209 28.757C44.1945 28.7167 44.3625 28.6137 44.4959 28.5383C44.7789 28.3784 45.667 27.9502 46.0584 27.757C46.5102 27.5341 46.808 27.5102 47.0897 27.6945C47.3823 27.8861 47.4187 28.4035 47.2147 29.132C47.0719 29.6419 46.9132 29.9857 46.4959 30.7883C46.381 31.0094 46.2345 31.3598 46.1522 31.5383C46.0699 31.7168 46.0021 31.8547 45.9959 31.8508C45.9716 31.8355 45.9837 31.5725 46.0271 31.3508C46.0956 31.0002 46.2455 30.6113 46.5896 29.9758C46.8185 29.5532 47.0671 29.0433 47.0896 28.9445C47.1172 28.8233 47.0826 28.6131 46.9959 28.507C46.9588 28.4619 46.8678 28.403 46.8084 28.382C46.7059 28.3458 46.6788 28.3741 46.2772 28.4758C45.6263 28.641 45.3592 28.7453 44.1522 29.4758C43.2081 30.0471 43.0499 30.1541 41.9022 30.9445C41.8245 30.9981 41.6807 31.1019 41.5897 31.1633C40.6188 31.8185 39.8196 32.4592 39.0584 33.1945C39.0189 33.2327 38.9937 33.2797 38.9959 33.2883C38.9979 33.2973 39.0702 33.3184 39.1522 33.3508C39.2343 33.3832 39.3967 33.453 39.5272 33.507C39.6576 33.5611 40.0703 33.7327 40.4334 33.882C40.7965 34.0314 41.2032 34.2001 41.3397 34.257C41.4762 34.3139 41.7137 34.3932 41.8397 34.4445C41.9656 34.4958 42.1966 34.5896 42.3709 34.6633C42.5453 34.737 42.8172 34.8534 42.9647 34.9133C43.1121 34.9732 43.3206 35.0547 43.4334 35.1008C44.1439 35.3912 44.0986 35.3771 44.1522 35.3195C44.2417 35.2234 44.6489 34.9656 44.9022 34.8508C45.0497 34.7839 45.3017 34.7111 45.4959 34.6633L45.8084 34.5695L45.7772 34.4758C45.7587 34.4235 45.6261 34.1568 45.4647 33.882C45.0311 33.1438 44.7491 32.6902 44.621 32.4133C44.456 32.057 44.3163 31.5394 44.3085 31.3508C44.3005 31.1558 44.3326 30.8278 44.371 30.8195C44.4006 30.8135 45.4164 32.014 45.4022 32.0383C45.3992 32.0453 45.3122 32.0243 45.2147 32.007L45.0272 31.9758L45.0897 32.1008C45.2559 32.5348 45.3511 32.7133 45.496 32.9758C45.7934 33.5149 46.0945 33.9446 46.4022 34.1945C46.6082 34.3619 47.0128 34.5886 47.2772 34.6945C47.4974 34.7827 47.5195 34.8046 47.5897 34.9445C47.6742 35.1131 47.7647 35.5143 47.746 35.632V35.7258L47.5585 35.632C47.3413 35.5119 47.1155 35.4437 46.8085 35.382C46.4722 35.3145 46.2299 35.3031 45.871 35.382C45.5516 35.4521 45.3985 35.5201 45.1835 35.6633L45.0585 35.7258L45.5585 35.9758C46.3139 36.3481 47.6395 37.0403 48.0272 37.257C48.6461 37.6031 49.1547 37.8923 49.3397 37.9758C49.5713 38.0803 49.9021 38.1767 49.9647 38.1633C50.0042 38.1553 50.0265 38.1563 49.6835 37.257C49.4177 36.5605 48.9228 35.3337 48.7147 34.8508C48.3849 34.0853 47.4668 31.8045 47.4022 31.5695C47.3786 31.4844 47.4072 31.3982 47.4334 31.257L47.4646 31.0383L47.5583 31.132C47.9112 31.4741 48.2937 31.9075 48.4958 32.1945C48.5785 32.3121 48.7948 32.6767 48.8083 32.7258C48.8113 32.7385 48.6894 32.6981 48.5583 32.632C48.4272 32.5659 48.3156 32.5055 48.3083 32.507C48.3003 32.509 48.3237 32.5611 48.3395 32.6008C48.3555 32.6405 48.5074 33.0351 48.6833 33.4758C48.8591 33.9165 49.2274 34.7962 49.4958 35.4445C50.039 36.7569 50.2997 37.3883 50.4645 37.8195C50.5254 37.979 50.5662 38.1168 50.5895 38.132C50.6127 38.1473 50.7366 38.1455 50.8395 38.132C50.9938 38.1117 51.0556 38.1014 51.2145 38.007C51.5528 37.8056 51.8475 37.4313 51.8083 37.2883C51.7853 37.2065 51.2142 35.7178 51.0583 35.3508C50.991 35.1927 50.8738 34.9155 50.8083 34.757C50.7428 34.5986 50.5637 34.1772 50.402 33.7883C50.2404 33.3994 50.033 32.9228 49.9645 32.757C49.896 32.5913 49.78 32.3218 49.7145 32.1633C49.589 31.8594 49.2841 31.0946 49.0895 30.632C49.026 30.481 48.8857 30.1944 48.8083 30.007C48.731 29.8197 48.5456 29.3324 48.3708 28.9445C47.9782 28.0736 47.9163 27.9705 47.9333 27.6633C47.9403 27.5363 47.958 27.403 47.9645 27.382H47.9649ZM50.0587 27.5695C50.1197 27.6105 50.7245 28.2787 50.9024 28.507C51.1071 28.7696 51.3257 29.0899 51.4024 29.257L51.4336 29.3508L51.3711 29.3195C51.328 29.2968 51.2181 29.218 51.1211 29.1633C51.0241 29.1086 50.9369 29.0632 50.9336 29.0695C50.9276 29.0807 51.134 29.6093 51.5899 30.6633C51.7171 30.9576 51.9915 31.562 52.1836 32.007C52.3756 32.4521 52.541 32.8485 52.5586 32.882L52.5898 32.9445L52.621 32.882C52.6445 32.8445 52.6883 32.7252 52.7147 32.632L52.7772 32.4758L52.5897 32.2883C52.3505 32.0525 52.3091 31.9543 52.371 31.757C52.4524 31.4976 52.6187 31.3683 52.7772 31.4758C52.9784 31.6123 53.111 31.9323 53.0897 32.2883C53.0837 32.383 53.0714 32.4732 53.0897 32.507C53.1081 32.5404 53.1503 32.5936 53.1522 32.632C53.1542 32.6962 53.1293 32.7102 53.0585 32.6945C52.9736 32.6758 52.9836 32.6429 52.871 32.9133C52.8432 32.9802 52.785 33.1195 52.746 33.1945L52.6835 33.3195L52.7772 33.5383C53.1579 34.4299 53.3453 35.3059 53.3085 35.882C53.2928 36.1275 53.3105 36.128 53.2773 36.007C53.136 35.499 52.7645 34.539 52.5585 34.132C52.388 33.7949 52.3669 33.7868 52.246 33.9445C52.0896 34.1486 51.8537 34.423 51.7148 34.5383C51.6924 34.5569 51.6639 34.5614 51.6523 34.5695C51.682 34.5135 51.7737 34.3635 51.9335 34.1008L52.246 33.5383L52.1523 33.257C51.2914 31.0966 50.7657 29.8869 50.246 28.7883C50.1147 28.5106 50.0075 28.2468 49.996 28.1945C49.9522 27.9991 49.9953 27.5272 50.0585 27.5695H50.0587ZM43.7462 27.757C43.7819 27.749 43.7241 27.9209 43.6524 28.0383C43.566 28.1796 43.4676 28.2576 42.4649 28.9445C41.6407 29.5092 40.9171 30.0379 40.6212 30.257C40.5144 30.3361 40.4094 30.4118 40.4024 30.4133C40.3954 30.4153 40.4184 30.3528 40.4337 30.2883C40.4497 30.2237 40.4702 30.1185 40.4962 30.0695C40.5468 29.9742 40.9164 29.6818 41.3399 29.382C41.7971 29.0584 43.7066 27.7656 43.7462 27.757ZM47.6524 29.5695C47.8018 29.5374 48.0255 29.5524 48.1524 29.632C48.4504 29.819 48.5001 30.2113 48.2461 30.4758C48.1362 30.5902 48.046 30.6255 47.9336 30.6008C47.7473 30.5599 47.6985 30.5345 47.6211 30.1945C47.5825 30.0259 47.557 29.8086 47.5586 29.7258C47.5626 29.5914 47.5869 29.5836 47.6523 29.5695H47.6524ZM45.1212 29.6633C45.1393 29.6936 45.1846 29.8324 45.2149 30.0383C45.2618 30.3562 45.312 30.4889 45.4336 30.5695C45.547 30.6446 45.5761 30.6223 45.6211 30.507C45.6412 30.4556 45.6694 30.4163 45.6836 30.4133C45.7348 30.4023 45.7495 30.5963 45.7148 30.7258C45.6668 30.9046 45.5523 30.9795 45.4648 30.9133C45.2485 30.7496 45.0926 30.3006 45.0898 29.8508C45.0888 29.6943 45.103 29.633 45.121 29.6633H45.1212ZM47.9024 29.8508C47.806 29.8403 47.7252 29.8468 47.7149 29.882C47.7099 29.8952 47.7199 29.9922 47.7461 30.1008C47.78 30.2513 47.8039 30.3058 47.8398 30.3195C47.9114 30.3478 48.1208 30.2714 48.1835 30.1945C48.2509 30.1118 48.2332 30.0007 48.1524 29.9445C48.0907 29.9016 47.9988 29.8612 47.9024 29.8508H47.9024ZM50.0899 30.2258L50.1211 30.3508C50.182 30.7269 50.2447 30.9552 50.3086 31.0695C50.3824 31.2034 50.4701 31.2941 50.5586 31.3195C50.6076 31.3335 50.62 31.3155 50.6523 31.1945C50.6846 31.0741 50.7171 31.0607 50.746 31.1008C50.8329 31.2215 50.8491 31.4471 50.7772 31.5695C50.7304 31.6495 50.6086 31.6593 50.496 31.6008C50.2912 31.4945 50.1305 31.2047 50.0897 30.7883C50.0762 30.6489 50.0827 30.4688 50.0897 30.382V30.2258H50.0899ZM54.5274 30.2258L54.8399 30.5383C55.3044 31.0028 55.5426 31.2637 55.7149 31.5383C55.946 31.9066 55.938 31.9316 55.6524 31.7883C55.5197 31.7217 55.4089 31.6619 55.4024 31.6633C55.39 31.6663 55.3864 31.6773 55.5587 32.132C55.7976 32.7613 55.8582 32.9105 56.6837 34.8195C56.9633 35.4663 57.2417 36.153 57.4337 36.6945C57.6113 37.1961 57.9247 38.2997 57.9337 38.4758C57.9397 38.5854 57.862 39.0542 57.84 39.1633C57.8289 39.125 57.7166 38.8678 57.6212 38.6008C57.5257 38.3338 57.421 37.997 57.3712 37.8508C56.9047 36.4817 56.8352 36.331 55.715 33.6945C55.5225 33.2417 55.1972 32.4816 54.9962 32.007C54.7951 31.5325 54.5963 31.1193 54.5587 31.0695C54.4553 30.9325 54.4216 30.7067 54.465 30.4445L54.5275 30.2258H54.5274ZM42.4649 31.132L42.4961 31.2258C42.5165 31.2755 42.5524 31.4522 42.5586 31.6008C42.5732 31.951 42.6317 32.1898 42.7461 32.3195C42.8791 32.4706 42.9023 32.4737 42.9961 32.382L43.0898 32.2883L43.121 32.4133C43.1965 32.6879 42.9442 32.8697 42.7148 32.7258C42.5899 32.6474 42.5334 32.5245 42.4648 32.1945C42.413 31.9456 42.3954 31.5285 42.4335 31.2883L42.4648 31.132H42.4649ZM52.6837 31.8195C52.5261 31.8135 52.5372 31.9584 52.7149 32.0695C52.8435 32.1502 52.9061 32.1379 52.8711 32.007C52.8442 31.9113 52.753 31.8221 52.6836 31.8195H52.6837ZM40.9024 32.007C40.9367 31.972 40.9851 32.2185 40.9961 32.4758C41.0106 32.8088 41.0697 32.996 41.1836 33.132C41.3123 33.286 41.3462 33.3016 41.4336 33.2258C41.4734 33.1914 41.5117 33.1536 41.5273 33.1633C41.5723 33.1915 41.5736 33.3908 41.5273 33.4758C41.4714 33.5792 41.2936 33.6336 41.1835 33.5695C41.0089 33.4679 40.9057 33.2047 40.871 32.7883C40.8504 32.5411 40.8713 32.0384 40.9023 32.007H40.9024ZM47.2149 32.3195C47.2327 32.3105 47.2412 32.3165 47.2774 32.3195C47.4226 32.3298 47.4887 32.3661 47.5274 32.507C47.5468 32.5763 47.5648 32.6521 47.5586 32.6633C47.5526 32.6745 47.4795 32.6543 47.4024 32.632C47.1209 32.552 47.1195 32.5684 47.3087 33.3195L47.4649 33.9445L47.2774 33.7883C46.8951 33.4544 46.6677 33.3384 46.4649 33.382C46.3085 33.4156 46.1759 33.3275 46.1212 33.132C46.0876 33.0142 46.1172 32.9947 46.2774 33.007C46.4723 33.022 46.7385 33.131 46.9649 33.2883C47.0696 33.361 47.1551 33.396 47.1524 33.382C47.1504 33.368 47.1544 33.3426 47.1524 33.3195C47.1504 33.2964 47.139 33.1738 47.1212 33.0695C47.0703 32.7575 47.0942 32.5615 47.1837 32.382C47.198 32.3535 47.1973 32.3287 47.2149 32.3195ZM43.9024 32.6633C43.926 32.6526 43.9283 32.6573 43.9649 32.6633C44.1709 32.6951 44.2879 32.8399 44.2462 33.0383L44.2149 33.132L44.0899 33.0383C43.7805 32.8642 43.7243 33.0423 43.9024 33.6945C44.0267 34.1495 44.0964 34.5859 44.0274 34.6008C44.0159 34.6028 43.9152 34.5043 43.8087 34.382C43.4892 34.0157 43.3183 33.9023 43.1212 33.9445C42.9194 33.9878 42.7387 33.8117 42.7149 33.5383C42.7059 33.4433 42.7364 33.4355 42.8399 33.4133C43.0373 33.3708 43.2238 33.4842 43.5899 33.8195C43.8277 34.0373 43.8542 34.0179 43.7774 33.7258C43.6527 33.2524 43.6635 32.8843 43.8087 32.7258C43.8435 32.6878 43.8789 32.674 43.9024 32.6633H43.9024ZM56.7462 33.3508C56.763 33.3548 56.7772 33.4709 56.8087 33.6945C56.8337 33.867 56.8839 34.0643 56.9024 34.132C56.9472 34.2962 57.0437 34.4876 57.1524 34.5695L57.246 34.632L57.2773 34.5695C57.3204 34.4684 57.3947 34.4908 57.4335 34.632C57.4743 34.7804 57.4147 34.8904 57.3085 34.9133C57.2529 34.9253 57.2125 34.9183 57.121 34.8508C56.8887 34.6802 56.7562 34.346 56.7148 33.6633C56.7015 33.4443 56.7293 33.3465 56.746 33.3508H56.7462ZM49.4649 33.4445L49.4961 33.5695C49.5899 34.1993 49.5984 34.2979 49.6836 34.4445C49.7363 34.5353 50.005 34.7373 50.0586 34.7258C50.072 34.7228 50.086 34.6489 50.0898 34.5695C50.0968 34.4202 50.0897 34.3971 50.1523 34.4445C50.2598 34.5259 50.3183 34.8535 50.246 34.9758C50.1984 35.0572 50.0683 35.0877 49.9648 35.0383C49.7718 34.9457 49.5235 34.537 49.4648 34.1945C49.4253 33.966 49.4336 33.7069 49.4648 33.5695V33.4445H49.4649ZM53.5587 33.882C53.5715 33.9206 53.5777 34.0271 53.5899 34.1945C53.6285 34.7201 53.7509 34.9983 53.9649 35.132L54.0585 35.1633L54.0898 35.0383L54.1523 34.9133L54.1835 35.0695C54.2113 35.1949 54.2062 35.3023 54.1835 35.382C54.1544 35.4809 54.1475 35.4879 54.0585 35.507C53.9801 35.524 53.9281 35.5212 53.871 35.4758C53.7481 35.3779 53.6711 35.2344 53.5897 34.882C53.5149 34.5578 53.499 34.1678 53.5272 33.9445C53.5391 33.8504 53.5458 33.8434 53.5584 33.882H53.5587ZM39.1212 34.257L39.0899 34.3508C38.9069 34.7905 38.751 35.3728 38.7462 35.6633C38.7412 35.9353 38.9256 36.3765 39.0587 36.4445C39.1576 36.495 39.2534 36.4525 39.3399 36.2883C39.4431 36.0924 39.5118 35.9812 39.5274 36.0383C39.5545 36.135 39.5515 36.3953 39.4963 36.5695C39.4203 36.8094 39.2796 37.0307 39.09 37.2883C38.9625 37.4616 38.9349 37.4986 38.9025 37.6945C38.7301 38.738 38.7415 39.2676 38.9337 39.6945C39.0298 39.908 39.2474 40.1735 39.3712 40.257C39.5998 40.4112 40.046 40.4178 40.2774 40.257C40.6778 39.979 41.4545 39.0247 41.9649 38.1945C42.4316 37.4358 43.1231 36.3653 43.1837 36.2883L43.2462 36.1945L42.2774 35.7258C41.146 35.2035 39.7464 34.5578 39.3712 34.382L39.1212 34.257H39.1212ZM40.9337 35.5695C40.9626 35.5725 40.988 35.5756 41.0274 35.6008L41.121 35.6633L41.1835 36.007L41.2773 36.3195L41.371 36.4133C41.5826 36.5623 41.7407 36.784 41.6835 36.882C41.666 36.912 41.6264 36.9188 41.5272 36.8508C41.2517 36.6621 41.276 36.6518 41.1835 36.9445C40.9734 37.6092 40.5358 38.307 39.8397 39.1008L39.6522 39.3195L39.7772 39.1008C39.8448 38.9821 40.0794 38.5845 40.3085 38.1945C40.6925 37.5407 40.9247 37.0902 41.0272 36.7883L41.0584 36.6633L40.9334 36.6008C40.7608 36.4981 40.637 36.3356 40.5897 36.1633C40.5162 35.8954 40.6178 35.6764 40.8397 35.6008C40.8875 35.5845 40.9047 35.5667 40.9334 35.5695H40.9337ZM48.2149 35.6008C48.2289 35.6078 48.2346 35.7111 48.2461 35.882C48.2795 36.3728 48.3645 36.596 48.5586 36.7258L48.6211 36.757L48.6836 36.632C48.7288 36.5462 48.7499 36.5212 48.7773 36.5383C48.8336 36.5732 48.8344 36.7949 48.7773 36.9133C48.7131 37.0452 48.6391 37.092 48.5273 37.0383C48.3694 36.9625 48.2915 36.8824 48.2148 36.6008C48.1443 36.3419 48.1261 36.1279 48.1523 35.8195C48.1659 35.6619 48.2008 35.5935 48.2148 35.6008H48.2149ZM40.8712 35.9445C40.85 35.9495 40.837 35.9688 40.8087 36.007C40.7698 36.0594 40.7692 36.0881 40.8087 36.132C40.859 36.1877 40.9908 36.2386 41.0587 36.2258C41.0907 36.2198 41.1174 36.177 41.0899 36.1008C41.067 36.0382 41.0088 35.9979 40.9649 35.9758C40.9214 35.954 40.8924 35.9396 40.8712 35.9445ZM53.7462 36.007C53.8046 35.9674 53.9302 36.0193 54.3087 36.257L54.6524 36.4758L54.5899 36.6945C54.5223 36.9316 54.4386 37.0658 54.3712 37.1008C54.343 37.1156 54.2108 37.0462 53.9649 36.9133C53.7604 36.8028 53.5944 36.7248 53.5899 36.7258C53.5849 36.7267 53.5281 36.8522 53.4649 37.007C53.4017 37.1619 53.3254 37.2847 53.3087 37.2883C53.202 37.3112 52.5536 36.9462 52.5274 36.8508C52.5224 36.8314 52.5429 36.6765 52.5899 36.507L52.6836 36.1945L52.7773 36.2258C52.8284 36.2425 53.0063 36.3532 53.1835 36.4445L53.496 36.6008L53.5585 36.5383C53.5803 36.4983 53.6157 36.3713 53.6523 36.257C53.6889 36.1428 53.725 36.0214 53.746 36.007H53.7462ZM51.2774 36.1945C51.2882 36.2015 51.2864 36.2579 51.2774 36.3195C51.2621 36.4197 51.2238 36.4906 50.8712 36.8195C50.6541 37.022 50.444 37.2171 50.4024 37.257L50.3399 37.3195V37.2258C50.3359 37.1728 50.3268 37.1227 50.3399 37.1008C50.3714 37.0476 50.9851 36.4308 51.1524 36.2883C51.2254 36.2261 51.2671 36.188 51.2774 36.1945ZM43.9649 36.6008L43.8399 36.7258C43.4826 37.0846 43.2123 37.4787 42.2774 38.9758C42.1469 39.1848 41.8013 39.6912 41.6524 39.882C41.3776 40.2344 40.8159 40.7852 40.6212 40.882C40.5704 40.9073 40.5238 40.948 40.4962 41.1008C40.3769 41.7625 40.3842 42.4767 40.4962 42.882C40.6258 43.3517 40.97 43.8262 41.2774 43.9133C41.5057 43.978 41.7468 43.8887 41.9962 43.6945C42.1544 43.5713 42.1957 43.5211 42.5274 42.9445C42.8915 42.3118 43.0806 42.0581 43.4024 41.7258C43.709 41.4092 44.3634 40.9081 44.9337 40.5383C45.7665 39.9983 46.3864 39.4956 46.7774 39.0695C46.9049 38.9306 46.9975 38.8246 46.9962 38.8195C46.9733 38.7385 46.6807 38.4039 46.4649 38.1945C45.9937 37.7374 45.3276 37.2882 44.3399 36.7883L43.9649 36.6008ZM44.6837 38.257C44.7209 38.2191 44.9072 38.2902 45.2462 38.507L45.5899 38.7258L45.5587 38.8508C45.4508 39.2435 45.3707 39.3344 45.2774 39.3508C45.2586 39.3538 45.1412 39.3048 44.9962 39.2258C44.5553 38.9857 44.5204 38.9827 44.4962 39.0383C44.4847 39.0647 44.4251 39.1883 44.3712 39.3195C44.3174 39.4507 44.282 39.5686 44.2775 39.5695C44.1917 39.588 43.5673 39.2766 43.465 39.1633C43.4313 39.126 43.432 39.0584 43.4962 38.8195C43.5389 38.6582 43.5816 38.4908 43.5899 38.4758C43.6121 38.4357 43.7138 38.4763 44.0899 38.6633C44.2761 38.7559 44.4238 38.8217 44.4337 38.8195C44.4623 38.8135 44.516 38.6996 44.5899 38.4758C44.6275 38.3619 44.6726 38.2685 44.6836 38.257H44.6837ZM53.7462 38.8508C53.674 38.8719 53.6118 38.9312 53.5587 39.007C53.4085 39.2215 53.3924 39.4339 53.5275 39.757C53.6582 40.0706 53.9627 40.5103 54.1212 40.632C54.1563 40.659 54.2913 40.5303 54.5275 40.2883C54.6606 40.1519 54.7964 39.9314 54.7775 39.8508C54.6822 39.4435 54.323 39.0008 53.9962 38.882C53.9043 38.8486 53.8184 38.8296 53.7462 38.8508H53.7462ZM55.5587 39.0383C55.5677 39.0713 55.5861 39.1367 55.5899 39.257C55.6043 39.72 55.7215 40.0698 55.9336 40.1945C56.0295 40.2508 56.0661 40.2025 56.0586 40.0695C56.0536 39.9793 56.0956 39.9326 56.1211 40.007C56.1719 40.1561 56.1621 40.3068 56.0899 40.4445C56.0634 40.4955 56.0366 40.5229 55.9649 40.5383C55.8791 40.5568 55.8406 40.5701 55.7774 40.507C55.6706 40.4002 55.5988 40.1745 55.5587 39.882C55.5267 39.6495 55.5082 39.3083 55.5275 39.1008C55.5345 39.0227 55.5501 39.0053 55.5587 39.0383ZM42.9649 39.632C43.027 39.629 43.1091 39.6791 43.1837 39.7258C43.2884 39.7916 43.3146 39.8037 43.3399 39.9133C43.3556 39.9818 43.3449 40.0538 43.3399 40.0695C43.3229 40.1275 43.2572 40.1127 43.1524 40.0383C43.093 39.9961 43.0169 39.9713 42.9962 39.9758C42.9466 39.9865 42.9498 40.1826 43.0274 40.6008C43.0955 40.9648 43.1114 41.2217 43.0899 41.3195C43.0767 41.3791 43.0899 41.3746 42.9649 41.2258C42.8906 41.1374 42.7494 40.9885 42.6524 40.9133C42.4775 40.7778 42.4503 40.7819 42.3399 40.8195C42.2379 40.8542 42.2181 40.8319 42.0899 40.757C41.9383 40.6687 41.934 40.6121 41.9336 40.4133C41.9333 40.2777 41.9727 40.2353 42.0899 40.257C42.1841 40.2744 42.5107 40.4686 42.7461 40.6633C42.9024 40.7925 42.9551 40.806 42.9336 40.7258C42.9276 40.6997 42.8725 40.532 42.8399 40.3508C42.7874 40.0732 42.8106 40.0102 42.8399 39.8508C42.8744 39.6626 42.866 39.6368 42.9649 39.632ZM52.1837 39.6633C52.214 39.6634 52.2609 39.6626 52.2774 39.6945C52.359 39.8523 52.3658 39.9231 52.3085 39.9445C52.274 39.9573 52.2128 39.9414 52.1835 39.9133C52.1368 39.8675 52.1408 39.8736 52.0585 39.9445C51.9632 40.0262 51.9737 40.0546 52.0274 40.132C52.1105 40.2519 52.3648 40.2542 52.5586 40.132C52.7477 40.0128 52.7929 40.0124 52.8086 40.0695C52.835 40.1625 52.7162 40.3167 52.5274 40.4758C52.4259 40.5613 52.3247 40.6619 52.2774 40.7258C52.192 40.8411 52.0056 40.9791 51.9961 40.9445C51.9911 40.9251 52.0589 40.7887 52.1211 40.6633C52.1744 40.5562 52.162 40.5199 51.9961 40.382C51.8152 40.2318 51.792 40.1357 51.8711 39.9758C51.9723 39.7714 52.0926 39.6629 52.1836 39.6633H52.1837ZM47.7462 40.0383C47.7264 40.0513 47.7087 40.0923 47.7149 40.132C47.7286 40.2153 47.9152 40.337 47.9962 40.3195C48.0429 40.3094 48.0653 40.3114 48.0274 40.2258C47.9689 40.0946 47.8057 39.9994 47.7462 40.0383ZM46.6212 41.1008C46.6448 41.0918 46.6437 41.1315 46.6524 41.1633C46.6751 41.2435 46.5677 41.4385 46.4649 41.5383C46.4125 41.589 46.074 41.8731 45.6836 42.1633C44.9435 42.7135 44.4566 43.1151 44.3711 43.2258L44.3086 43.2883L44.4336 43.382C44.6355 43.5749 44.6772 43.7811 44.4961 43.7258C44.4625 43.7155 44.3684 43.6672 44.3086 43.632C44.2111 43.5745 44.2201 43.5476 44.1836 43.4133C44.1594 43.3254 44.1397 43.233 44.1524 43.1633C44.1891 42.9405 44.2533 42.8566 44.9024 42.382C45.2388 42.1361 45.5851 41.9029 45.6524 41.8508C45.7197 41.7987 45.8804 41.6483 46.0274 41.5383C46.1745 41.4283 46.379 41.2932 46.4649 41.2258C46.5568 41.1537 46.5976 41.1102 46.6212 41.1008ZM41.3712 41.257C41.3762 41.2826 41.3703 41.3607 41.3712 41.4758C41.3732 41.9733 41.4695 42.2554 41.6212 42.382C41.6658 42.4192 41.6717 42.421 41.7149 42.382C41.7427 42.3569 41.7888 42.3113 41.8085 42.257L41.8398 42.1633L41.871 42.3195C41.9106 42.4624 41.9063 42.5143 41.871 42.6008C41.82 42.7253 41.7817 42.7492 41.6835 42.757C41.5703 42.766 41.4527 42.6957 41.371 42.5383C41.308 42.4172 41.2963 42.3491 41.2773 42.1008C41.2545 41.8049 41.2823 41.4128 41.3398 41.2883C41.3545 41.2564 41.3663 41.2314 41.371 41.257H41.3712ZM48.3712 41.4758C48.405 41.449 48.4673 41.4612 48.5899 41.4758C48.9121 41.5142 49.1453 41.7049 49.1837 41.9445C49.2275 42.2137 49.0366 42.4825 48.7774 42.5383C48.6553 42.5646 48.6435 42.5602 48.5587 42.507C48.4796 42.4574 48.4277 42.4439 48.4024 42.3508C48.3629 42.2082 48.3506 41.9182 48.3399 41.6633C48.3349 41.5546 48.3369 41.5026 48.3711 41.4758H48.3712ZM48.4962 41.757C48.4282 41.7754 48.4262 41.8533 48.4649 42.0383C48.4991 42.2024 48.5121 42.2277 48.5587 42.257C48.6355 42.3052 48.7999 42.2857 48.9024 42.1945C48.9484 42.1535 49.0064 42.0969 49.0274 42.0695C49.0642 42.0216 49.0535 42.0171 48.9649 41.9445C48.8487 41.8494 48.7295 41.7764 48.5899 41.757C48.553 41.7519 48.5188 41.7509 48.4962 41.757H48.4962ZM54.9649 42.7258C54.9679 42.7318 54.9925 42.7129 54.9961 42.7258C55.0061 42.7569 55.0167 42.9099 55.0273 43.0695C55.0541 43.4457 55.1061 43.6582 55.246 43.7883C55.3682 43.9019 55.4158 43.8772 55.4648 43.6945C55.484 43.6229 55.5092 43.5319 55.5273 43.507C55.5571 43.4661 55.5733 43.4819 55.5898 43.6008C55.6069 43.726 55.5808 43.9457 55.5273 44.0695C55.4962 44.1423 55.3771 44.1911 55.2773 44.1633C55.0814 44.1089 54.9471 43.647 54.9335 43.0383C54.9305 42.915 54.9547 42.7688 54.9648 42.7258H54.9649ZM45.9337 42.9133C45.9863 42.9103 46.0615 42.9276 46.1524 42.9758C46.3198 43.0646 46.3599 43.1 46.3399 43.257L46.3087 43.3508L46.1524 43.2883C45.968 43.2083 45.9076 43.1986 45.9024 43.257C45.9015 43.2769 45.982 43.5068 46.0587 43.757C46.173 44.1292 46.1807 44.2312 46.1837 44.382C46.1857 44.4834 46.1927 44.5852 46.1837 44.6008C46.1747 44.617 46.1117 44.5895 46.0587 44.5383C46.0073 44.4888 45.9271 44.4094 45.8712 44.3508C45.6676 44.1376 45.4696 44.0349 45.3087 44.0695C45.1929 44.0944 45.1069 44.0264 45.0587 43.8508C45.0044 43.6529 45.0342 43.6196 45.1212 43.6008C45.2535 43.5723 45.5302 43.7247 45.8399 44.007C45.8913 44.0538 45.9558 44.1027 45.9649 44.1008C45.9982 44.0938 45.9775 43.9686 45.9024 43.6945C45.8236 43.4064 45.7964 43.1395 45.8399 43.007C45.8576 42.9521 45.8812 42.9165 45.9337 42.9133ZM53.9962 43.5383C54.0957 43.5169 54.2456 43.587 54.3399 43.6945C54.4184 43.7839 54.4251 43.781 54.4024 43.882C54.3893 43.9388 54.3798 44.0052 54.3712 44.007C54.3622 44.009 54.2696 43.981 54.1837 43.9445C54.0121 43.8717 53.9192 43.8642 53.9025 43.9445C53.8965 43.9733 53.9408 44.1819 53.9962 44.4133C54.0909 44.8141 54.1362 45.209 54.0899 45.2883C54.0809 45.3041 53.9763 45.2319 53.8711 45.1008C53.6268 44.7966 53.444 44.6347 53.2461 44.632C53.0455 44.629 53.0048 44.625 52.9024 44.507C52.7953 44.3842 52.7508 44.2263 52.7774 44.1008C52.7932 44.0256 52.8061 44.0365 52.871 44.0383C53.1076 44.0443 53.3623 44.1963 53.746 44.6008L53.9335 44.7883L53.9024 44.6633C53.8934 44.5965 53.8678 44.4195 53.8399 44.257C53.8097 44.095 53.8012 43.9114 53.8087 43.8508C53.828 43.696 53.9112 43.5566 53.9962 43.5383ZM42.7149 44.2258C42.7209 44.2298 42.7219 44.3308 42.7149 44.4445C42.6983 44.7039 42.7311 44.9299 42.8399 45.0383C42.9261 45.1243 42.9685 45.1165 43.0587 45.0383C43.0939 45.0078 43.1094 44.9996 43.1212 45.007C43.155 45.0283 43.1978 45.155 43.1837 45.2258C43.142 45.4256 43.0268 45.488 42.8712 45.4133C42.7018 45.332 42.5718 45.0034 42.5899 44.632C42.5979 44.4651 42.6861 44.2077 42.7149 44.2258ZM51.9337 44.9445C51.9923 44.932 52.1064 45.0158 52.1212 45.0695C52.1331 45.1125 52.1292 45.1208 52.0587 45.132C51.9221 45.1537 51.924 45.138 51.9024 45.2258L51.8712 45.3195V45.2258C51.8642 45.1162 51.8933 44.9533 51.9337 44.9445H51.9337ZM52.7149 45.382C52.7386 45.3717 52.7471 45.3901 52.7774 45.4133C52.8112 45.4388 52.8194 45.4388 52.7774 45.4758C52.7134 45.5323 52.6858 45.591 52.7149 45.632C52.7525 45.6849 52.8143 45.6688 52.9337 45.6008C52.9967 45.565 53.05 45.5328 53.0587 45.5383C53.1019 45.5653 52.9935 45.7342 52.8087 45.882C52.5278 46.1068 52.4155 46.1769 52.3087 46.1633C52.2464 46.1553 52.1862 46.176 52.0899 46.2258C51.9296 46.3086 51.8312 46.3111 51.7149 46.2883C51.666 46.2783 51.5912 46.2991 51.5274 46.3195C51.4373 46.3483 51.3753 46.3515 51.3087 46.3195C51.2243 46.2787 51.2484 46.2719 51.2462 46.132C51.2422 45.8524 51.3238 45.6947 51.4337 45.7883C51.5051 45.849 51.5011 45.8601 51.4024 45.9445C51.2786 46.0506 51.2469 46.1362 51.3399 46.1945C51.38 46.2196 51.4427 46.2391 51.4649 46.2258C51.5851 46.1548 51.7251 46.0361 51.7462 46.007C51.7645 45.9816 51.7422 45.9481 51.6837 45.8508C51.5962 45.7061 51.5886 45.6985 51.6837 45.7258C51.7466 45.7439 51.7719 45.7584 51.8087 45.9445C51.851 46.1614 51.8705 46.1636 51.9962 46.1008C52.062 46.0679 52.0725 45.9924 52.0899 45.757C52.0999 45.6227 52.123 45.5873 52.1836 45.5383C52.2669 45.4709 52.3534 45.474 52.3711 45.5383C52.3771 45.563 52.3439 45.5614 52.3086 45.5695C52.2364 45.5863 52.1498 45.7237 52.1836 45.757C52.1969 45.7703 52.24 45.765 52.2773 45.757C52.3415 45.7433 52.3566 45.7466 52.371 45.8508C52.3859 45.9587 52.3878 45.9612 52.4647 45.9445C52.5082 45.9355 52.5575 45.9135 52.5897 45.882C52.6404 45.8324 52.6518 45.8073 52.6209 45.6945C52.593 45.5933 52.5854 45.5404 52.6209 45.4758C52.6465 45.4286 52.6909 45.3922 52.7146 45.382H52.7149ZM46.6212 45.9445C46.6302 45.9425 46.6525 46.0704 46.6837 46.2258C46.7465 46.5318 46.8131 46.6553 46.9649 46.757L47.0586 46.8195L47.1211 46.6945C47.1988 46.5653 47.2117 46.5499 47.2461 46.7258C47.2643 46.8176 47.1979 47.0597 47.1524 47.0695C47.1324 47.0735 47.1075 47.0908 47.0899 47.1008C47.0721 47.1108 47.0272 47.1014 46.9962 47.1008C46.9651 47.0999 46.9019 47.0864 46.8712 47.0695C46.7947 47.0275 46.6902 46.832 46.6524 46.6945C46.5868 46.4555 46.562 45.9573 46.6213 45.9445H46.6212Z" fill="white"/>
</g>
<defs>
<clipPath id="clip0_69_364">
<rect width="93.5642" height="93.5642" fill="white"/>
</clipPath>
</defs>
</svg>
