<svg width="0" height="0" class="hidden">
  <symbol version="1.1" xmlns="http://www.w3.org/2000/svg" viewBox="0 0 20 20" id="magnifying-glass">
    <title>magnifying-glass</title>
    <path d="M17.545 15.467l-3.779-3.779c0.57-0.935 0.898-2.035 0.898-3.21 0-3.417-2.961-6.377-6.378-6.377s-6.186 2.769-6.186 6.186c0 3.416 2.961 6.377 6.377 6.377 1.137 0 2.2-0.309 3.115-0.844l3.799 3.801c0.372 0.371 0.975 0.371 1.346 0l0.943-0.943c0.371-0.371 0.236-0.84-0.135-1.211zM4.004 8.287c0-2.366 1.917-4.283 4.282-4.283s4.474 2.107 4.474 4.474c0 2.365-1.918 4.283-4.283 4.283s-4.473-2.109-4.473-4.474z"></path>
  </symbol>
  <symbol xmlnsDc="http://purl.org/dc/elements/1.1/" xmlnsCc="http://creativecommons.org/ns#" xmlnsRdf="http://www.w3.org/1999/02/22-rdf-syntax-ns#" xmlnsSvg="http://www.w3.org/2000/svg" xmlns="http://www.w3.org/2000/svg" xmlnsSodipodi="http://sodipodi.sourceforge.net/DTD/sodipodi-0.dtd" xmlnsInkscape="http://www.inkscape.org/namespaces/inkscape" id="masjid" version="1.1" inkscapeVersion="0.48.5 r10040" sodipodiDocname="174 BNT #124 muslim icon_next4 submit ocal_d quran-@tmg.svg" viewBox="0 0 93.564217 93.564217">
    <defs id="defs3149"></defs>
    <sodipodi:namedview id="base" pagecolor="#ffffff" bordercolor="#666666" borderopacity="1.0" inkscapePageopacity="0.0" inkscapePageshadow="2" inkscapeZoom="2.8" inkscapeCx="30.808338" inkscapeCy="38.685829" inkscapeDocumentUnits="px" inkscapeCurrentLayer="layer1" showgrid="false" fitMarginTop="0" fitMarginLeft="0" fitMarginRight="0" fitMarginBottom="0" inkscapeWindowWidth="1366" inkscapeWindowHeight="688" inkscapeWindowX="-8" inkscapeWindowY="-8" inkscapeWindowMaximized="1"></sodipodi:namedview>
    <metadata id="metadata3152">
      <rdf:RDF>
        <cc:Work rdfAbout="">
          <dc:format>image/svg+xml</dc:format>
          <dc:type rdfResource="http://purl.org/dc/dcmitype/StillImage"></dc:type>
          <dc:title></dc:title>
        </cc:Work>
      </rdf:RDF>
    </metadata>
    <g inkscapeLabel="Layer 1" inkscapeGroupmode="layer" id="layer1" transform="translate(-181.78932,-457.00864)">
      <g id="g3300" transform="translate(67.290861,442.11587)">
        <rect ry="0.31012449" rx="0.31012449" y="14.892772" x="114.49846" height="93.564217" width="93.564217" id="rect3302"></rect>
      </g>
  
      <path d="m 254.4101,474.50014 c -0.77589,2.42822 -4.32219,2.38573 -3.3125,7.65625 l 3.3125,0 3.3125,0 c 1.0097,-5.27052 -2.53662,-5.22803 -3.3125,-7.65625 z m -4.28125,8.375 0,1.71875 8.5625,0 0,-1.71875 -8.5625,0 z m 1.03125,2.5 -1.03125,19.09375 3.96875,0 0.0625,3.875 -0.90625,0 0,16.65625 6.4375,0 -2.28125,-39.625 -6.25,0 z m -26.4375,0.34375 c -3.79836,5.86464 -21.09921,5.70812 -16.15625,18.4375 l 16.15625,0 16.15625,0 c 4.94296,-12.72938 -12.35789,-12.57286 -16.15625,-18.4375 z m -28.28125,19.71875 0,1.78125 56.5625,0 0,-1.78125 -56.5625,0 z m 1,2.78125 0,16.65625 7.15625,0 0,-6.5 0,-0.25 0.0312,0 c 0.0124,-0.15751 0.0277,-0.2972 0.0625,-0.4375 0.5222,-2.10447 3.42826,-2.38312 4.1875,-3.875 0.0506,0.0995 0.11922,0.19175 0.1875,0.28125 1.02422,1.34253 3.87702,1.66858 4.0625,4.03125 0.0131,0.16697 0.0154,0.34285 0,0.53125 l 0,6.21875 7,0 0,-6.5 0,-0.25 0.0312,0 c 0.0989,-1.26009 0.96971,-1.93581 1.90625,-2.5 0.93654,-0.56419 1.93882,-1.01683 2.34375,-1.8125 0.0506,0.0995 0.11922,0.19175 0.1875,0.28125 1.02422,1.34253 3.87702,1.66858 4.0625,4.03125 0.0131,0.16697 0.0154,0.34285 0,0.53125 l 0,6.21875 7.625,0 0,-6.5 0,-0.25 0.0312,0 c 0.0989,-1.26009 0.96971,-1.93581 1.90625,-2.5 0.93654,-0.56419 1.93882,-1.01683 2.34375,-1.8125 0.0506,0.0995 0.11922,0.19175 0.1875,0.28125 1.02422,1.34253 3.87702,1.66858 4.0625,4.03125 0.0131,0.16697 0.0154,0.34285 0,0.53125 l 0,6.21875 7.1875,0 0,-16.65625 -54.5625,0 z" id="path3304" inkscapeConnectorCurvature="0"></path>
    </g>
  </symbol>
  <symbol fill="none" xmlns="http://www.w3.org/2000/svg" viewBox="0 0 36 36" id="NEXT">
    <g filter="url(#filter0_diii_42_328)">
      <path fill-rule="evenodd" clip-rule="evenodd" d="M15.685 23.5893C15.2718 23.1876 15.2718 22.5363 15.685 22.1346L17.4366 20.4317C18.9649 18.9459 18.9649 16.4916 17.4366 15.0058L15.685 13.3029C15.2718 12.9012 15.2718 12.2499 15.685 11.8482C16.0982 11.4464 16.7681 11.4464 17.1813 11.8482L22.4715 16.9914C22.8847 17.3931 22.8847 18.0444 22.4715 18.4461L17.1813 23.5893C16.7681 23.9911 16.0982 23.9911 15.685 23.5893Z" fill="black"></path>
    </g>
    <circle cx="17.8439" cy="17.7187" r="17.2813" transform="rotate(180 17.8439 17.7187)" fill="url(#paint0_linear_42_328)" fill-opacity="0.45"></circle>
    <defs>
      <filter id="filter0_diii_42_328" x="7.80766" y="7.76314" width="22.5412" height="27.4787" filterUnits="userSpaceOnUse" color-interpolation-filters="sRGB">
        <feFlood flood-opacity="0" result="BackgroundImageFix"></feFlood>
        <feColorMatrix in="SourceAlpha" type="matrix" values="0 0 0 0 0 0 0 0 0 0 0 0 0 0 0 0 0 0 127 0" result="hardAlpha"></feColorMatrix>
        <feOffset dy="3.78373"></feOffset>
        <feGaussianBlur stdDeviation="3.78373"></feGaussianBlur>
        <feColorMatrix type="matrix" values="0 0 0 0 0 0 0 0 0 0 0 0 0 0 0 0 0 0 0.15 0"></feColorMatrix>
        <feBlend mode="normal" in2="BackgroundImageFix" result="effect1_dropShadow_42_328"></feBlend>
        <feBlend mode="normal" in="SourceGraphic" in2="effect1_dropShadow_42_328" result="shape"></feBlend>
        <feColorMatrix in="SourceAlpha" type="matrix" values="0 0 0 0 0 0 0 0 0 0 0 0 0 0 0 0 0 0 127 0" result="hardAlpha"></feColorMatrix>
        <feOffset dy="3.78373"></feOffset>
        <feGaussianBlur stdDeviation="1.89187"></feGaussianBlur>
        <feComposite in2="hardAlpha" operator="arithmetic" k2="-1" k3="1"></feComposite>
        <feColorMatrix type="matrix" values="0 0 0 0 1 0 0 0 0 1 0 0 0 0 1 0 0 0 0.65 0"></feColorMatrix>
        <feBlend mode="normal" in2="shape" result="effect2_innerShadow_42_328"></feBlend>
        <feColorMatrix in="SourceAlpha" type="matrix" values="0 0 0 0 0 0 0 0 0 0 0 0 0 0 0 0 0 0 127 0" result="hardAlpha"></feColorMatrix>
        <feOffset dy="-3.78373"></feOffset>
        <feGaussianBlur stdDeviation="1.89187"></feGaussianBlur>
        <feComposite in2="hardAlpha" operator="arithmetic" k2="-1" k3="1"></feComposite>
        <feColorMatrix type="matrix" values="0 0 0 0 0 0 0 0 0 0 0 0 0 0 0 0 0 0 0.42 0"></feColorMatrix>
        <feBlend mode="normal" in2="effect2_innerShadow_42_328" result="effect3_innerShadow_42_328"></feBlend>
        <feColorMatrix in="SourceAlpha" type="matrix" values="0 0 0 0 0 0 0 0 0 0 0 0 0 0 0 0 0 0 127 0" result="hardAlpha"></feColorMatrix>
        <feOffset dy="1.89187"></feOffset>
        <feGaussianBlur stdDeviation="0.945933"></feGaussianBlur>
        <feComposite in2="hardAlpha" operator="arithmetic" k2="-1" k3="1"></feComposite>
        <feColorMatrix type="matrix" values="0 0 0 0 1 0 0 0 0 1 0 0 0 0 1 0 0 0 0.45 0"></feColorMatrix>
        <feBlend mode="normal" in2="effect3_innerShadow_42_328" result="effect4_innerShadow_42_328"></feBlend>
      </filter>
      <linearGradient id="paint0_linear_42_328" x1="17.8439" y1="0.437496" x2="17.8439" y2="35" gradientUnits="userSpaceOnUse">
        <stop stop-color="#5FCCF5" stop-opacity="0.69"></stop>
        <stop offset="1" stop-color="#3B4450" stop-opacity="0.51"></stop>
      </linearGradient>
    </defs>
  </symbol>
  <symbol fill="none" xmlns="http://www.w3.org/2000/svg" viewBox="0 0 30 31" id="pdf-icon 2">
    <g clip-path="url(#clip0_105_88)">
      <path d="M21.6747 0.652031H3.31107V30.4287H26.6368V5.61419L21.6747 0.652031Z" fill="#E8E8E8"></path>
      <path d="M22.6756 15.3774C22.3178 14.7398 21.0815 14.5394 20.5143 14.4492C20.0673 14.3781 19.6109 14.3569 19.1587 14.3573C18.8037 14.355 18.4538 14.3724 18.1085 14.3921C17.9812 14.4006 17.8552 14.4116 17.7293 14.4225C17.6003 14.289 17.4755 14.151 17.3548 14.0098C16.5868 13.1007 15.9667 12.0697 15.4614 10.9983C15.5956 10.4806 15.7029 9.94033 15.7677 9.37925C15.8861 8.35519 15.9267 7.18814 15.543 6.21181C15.4105 5.87484 15.0573 5.46461 14.6497 5.66889C14.1811 5.90382 14.0493 6.5694 14.0111 7.04121C13.9804 7.42257 14.0019 7.80491 14.0659 8.17988C14.1311 8.55741 14.2361 8.91588 14.3504 9.27386C14.4571 9.60209 14.5746 9.92776 14.7028 10.2504C14.6215 10.5044 14.5352 10.7539 14.4445 10.9971C14.2332 11.5513 14.0046 12.0778 13.7848 12.5843C13.6689 12.8354 13.5555 13.0812 13.4445 13.3216C13.0933 14.093 12.7121 14.8503 12.2841 15.5824C11.286 15.9345 10.3903 16.3427 9.64647 16.8223C9.24743 17.0801 8.89495 17.3602 8.60139 17.6673C8.32424 17.9572 8.04257 18.3334 8.01791 18.75C8.00407 18.9851 8.09717 19.2132 8.28977 19.3527C8.55464 19.5506 8.90565 19.5374 9.21296 19.473C10.2196 19.2618 10.9927 18.3965 11.651 17.6672C12.1044 17.1648 12.6205 16.5269 13.1604 15.7555C13.1616 15.7537 13.1628 15.7519 13.164 15.7502C14.09 15.4631 15.0977 15.2207 16.1673 15.0425C16.6559 14.9615 17.1574 14.8952 17.669 14.8487C18.0288 15.1856 18.4175 15.4925 18.8416 15.7487C19.1719 15.9519 19.5232 16.1235 19.8909 16.2514C20.2627 16.3729 20.6368 16.4721 21.0231 16.5349C21.2181 16.5628 21.4176 16.5754 21.6214 16.5678C22.0762 16.5506 22.729 16.3762 22.7718 15.8243C22.785 15.6554 22.7485 15.5073 22.6756 15.3774ZM11.7869 16.39C11.5739 16.72 11.3684 17.0168 11.1748 17.2779C10.7008 17.923 10.1593 18.6892 9.3754 18.9756C9.22651 19.0301 9.03048 19.0862 8.82384 19.074C8.63979 19.0632 8.4583 18.982 8.46664 18.773C8.47077 18.6636 8.5243 18.5241 8.6064 18.387C8.69626 18.2366 8.80754 18.0987 8.92805 17.9719C9.18624 17.7007 9.5127 17.4377 9.88826 17.1943C10.4643 16.8206 11.152 16.4842 11.9185 16.1841C11.8744 16.2538 11.8304 16.3231 11.7869 16.39ZM14.4604 8.11467C14.4013 7.76955 14.3924 7.41962 14.4287 7.08315C14.4468 6.91491 14.4811 6.7507 14.5306 6.5968C14.5727 6.46618 14.6634 6.14738 14.8082 6.10643C15.0468 6.03886 15.1202 6.55123 15.1472 6.69619C15.301 7.52078 15.1655 8.43779 14.9809 9.24666C14.9516 9.37532 14.9189 9.50191 14.8854 9.62802C14.8282 9.47078 14.7737 9.31305 14.7235 9.15454C14.6155 8.80834 14.5167 8.45812 14.4604 8.11467ZM16.0989 14.6242C15.2022 14.7695 14.3493 14.9599 13.5474 15.1848C13.644 15.1577 14.0852 14.3217 14.1836 14.1481C14.6472 13.3315 15.0265 12.4744 15.2991 11.5753C15.7803 12.527 16.3644 13.4376 17.0819 14.248C17.148 14.3216 17.2152 14.3942 17.2835 14.466C16.8814 14.5094 16.4858 14.5621 16.0989 14.6242ZM22.1629 15.7727C22.1301 15.9499 21.7515 16.0513 21.5748 16.0792C21.0527 16.1613 20.5004 16.0956 20.0007 15.9277C19.6578 15.8126 19.3271 15.6559 19.0129 15.4673C18.7006 15.2786 18.4085 15.0567 18.1353 14.8119C18.4721 14.7917 18.813 14.7785 19.1555 14.7849C19.4981 14.7884 19.8433 14.8057 20.1843 14.8501C20.8238 14.9214 21.5403 15.141 22.0437 15.5559C22.1428 15.6377 22.1744 15.71 22.1629 15.7727Z" fill="#3498DB"></path>
      <path d="M22.4426 3.13316H3.31107V0.652031H21.6747L22.4426 3.13316Z" fill="#3498DB"></path>
      <path d="M12.5428 24.3361C12.5428 24.8626 12.3877 25.2692 12.0771 25.5559C11.7666 25.8428 11.3256 25.9862 10.754 25.9862H10.3962V27.5495H9.12319V22.8373H10.7541C11.3493 22.8373 11.7962 22.9674 12.0949 23.2273C12.3935 23.4873 12.5428 23.8569 12.5428 24.3361ZM10.3963 24.9484H10.6284C10.8196 24.9484 10.9716 24.8948 11.0845 24.7872C11.1973 24.6798 11.2537 24.5315 11.2537 24.3424C11.2537 24.0244 11.0775 23.8654 10.7251 23.8654H10.3963V24.9484Z" fill="#08324E"></path>
      <path d="M17.2937 25.0935C17.2937 25.8799 17.0772 26.4858 16.6443 26.9113C16.2114 27.3368 15.6026 27.5495 14.8184 27.5495H13.2939V22.8374H14.9248C15.6811 22.8374 16.265 23.0307 16.6765 23.4175C17.0879 23.8043 17.2937 24.363 17.2937 25.0935ZM15.9723 25.1387C15.9723 24.7067 15.8869 24.3867 15.7161 24.1782C15.5453 23.9697 15.2858 23.8655 14.9376 23.8655H14.5671V26.5052H14.8507C15.2376 26.5052 15.5211 26.3929 15.7016 26.1683C15.882 25.9439 15.9723 25.6007 15.9723 25.1387Z" fill="#08324E"></path>
      <path d="M19.3919 27.5495H18.1382V22.8374H20.923V23.8591H19.3919V24.7583H20.8036V25.78H19.3919V27.5495Z" fill="#08324E"></path>
      <path d="M21.6746 5.61419H26.6368L21.6746 0.652031V5.61419Z" fill="#D1D3D3"></path>
    </g>
    <defs>
      <clipPath id="clip0_105_88">
        <rect width="29.7767" height="29.7767" fill="white" transform="translate(0.08564 0.652039)"></rect>
      </clipPath>
    </defs>
  </symbol>
  <symbol fill="none" xmlns="http://www.w3.org/2000/svg" viewBox="0 0 35 36" id="play media 2">
    <g clip-path="url(#clip0_105_81)">
      <path d="M33.168 24.2498H2.35221C1.38576 24.2498 0.599457 23.4638 0.599457 22.4975V5.92773C0.599457 4.96149 1.38576 4.1754 2.35221 4.1754H33.168C34.1341 4.1754 34.9205 4.96149 34.9205 5.92773V22.4975C34.9205 23.4638 34.1341 24.2498 33.168 24.2498ZM2.35221 5.5909C2.16632 5.5909 2.01482 5.74198 2.01482 5.92773V22.4975C2.01482 22.6833 2.16632 22.8344 2.35221 22.8344H33.168C33.3538 22.8344 33.5051 22.6833 33.5051 22.4975V5.92773C33.5051 5.74198 33.3539 5.5909 33.168 5.5909H2.35221Z" fill="#3498DB"></path>
      <path d="M14.096 19.5911C13.8636 19.4639 13.7125 19.227 13.7125 18.9622V9.46306C13.7125 9.19815 13.8605 8.95559 14.096 8.83407C14.3314 8.71262 14.6146 8.73286 14.8305 8.88639L21.5097 13.6359C21.6965 13.7687 21.8072 13.9836 21.8072 14.2127C21.8072 14.4418 21.6965 14.6567 21.5097 14.7895C21.5097 14.7895 16.5 18.3514 14.8305 19.5389C14.7085 19.6257 14.4455 19.7823 14.096 19.5911ZM15.1281 10.8348V17.5905L19.8782 14.2127L15.1281 10.8348Z" fill="#3498DB"></path>
      <path d="M34.2129 28.2672H20.6855C20.3713 27.0639 19.275 26.1734 17.9747 26.1734C16.6744 26.1734 15.5784 27.0639 15.2642 28.2672H1.30716C0.916386 28.2672 0.599442 28.5842 0.599442 28.9749C0.599442 29.3659 0.916386 29.6827 1.30716 29.6827H15.2643C15.5785 30.886 16.6746 31.7767 17.9747 31.7767C19.2751 31.7767 20.3714 30.8859 20.6855 29.6827H34.2129C34.6033 29.6827 34.9205 29.3659 34.9205 28.9749C34.9205 28.5842 34.6033 28.2672 34.2129 28.2672ZM17.9747 30.3611C17.2106 30.3611 16.5886 29.7393 16.5886 28.9749C16.5886 28.2106 17.2106 27.5889 17.9747 27.5889C18.739 27.5889 19.3609 28.2106 19.3609 28.9749C19.3609 29.7393 18.739 30.3611 17.9747 30.3611Z" fill="#3498DB"></path>
    </g>
    <defs>
      <clipPath id="clip0_105_81">
        <rect width="34.3211" height="34.3211" fill="white" transform="translate(0.599472 0.815491)"></rect>
      </clipPath>
    </defs>
  </symbol>
  <symbol fill="none" xmlns="http://www.w3.org/2000/svg" viewBox="0 0 35 35" id="previous">
    <g filter="url(#filter0_diii_42_325)">
      <path fill-rule="evenodd" clip-rule="evenodd" d="M19.4401 11.4107C19.8533 11.8124 19.8533 12.4637 19.4401 12.8654L17.6885 14.5683C16.1603 16.0541 16.1603 18.5084 17.6885 19.9942L19.4401 21.6971C19.8533 22.0988 19.8533 22.7501 19.4401 23.1518C19.0269 23.5536 18.357 23.5536 17.9438 23.1518L12.6536 18.0086C12.2405 17.6069 12.2405 16.9556 12.6536 16.5539L17.9438 11.4107C18.357 11.0089 19.0269 11.0089 19.4401 11.4107Z" fill="black"></path>
    </g>
    <circle cx="17.2813" cy="17.2813" r="17.2813" fill="url(#paint0_linear_42_325)" fill-opacity="0.45"></circle>
    <defs>
      <filter id="filter0_diii_42_325" x="4.77628" y="7.32564" width="22.5412" height="27.4787" filterUnits="userSpaceOnUse" color-interpolation-filters="sRGB">
        <feFlood flood-opacity="0" result="BackgroundImageFix"></feFlood>
        <feColorMatrix in="SourceAlpha" type="matrix" values="0 0 0 0 0 0 0 0 0 0 0 0 0 0 0 0 0 0 127 0" result="hardAlpha"></feColorMatrix>
        <feOffset dy="3.78373"></feOffset>
        <feGaussianBlur stdDeviation="3.78373"></feGaussianBlur>
        <feColorMatrix type="matrix" values="0 0 0 0 0 0 0 0 0 0 0 0 0 0 0 0 0 0 0.15 0"></feColorMatrix>
        <feBlend mode="normal" in2="BackgroundImageFix" result="effect1_dropShadow_42_325"></feBlend>
        <feBlend mode="normal" in="SourceGraphic" in2="effect1_dropShadow_42_325" result="shape"></feBlend>
        <feColorMatrix in="SourceAlpha" type="matrix" values="0 0 0 0 0 0 0 0 0 0 0 0 0 0 0 0 0 0 127 0" result="hardAlpha"></feColorMatrix>
        <feOffset dy="3.78373"></feOffset>
        <feGaussianBlur stdDeviation="1.89187"></feGaussianBlur>
        <feComposite in2="hardAlpha" operator="arithmetic" k2="-1" k3="1"></feComposite>
        <feColorMatrix type="matrix" values="0 0 0 0 1 0 0 0 0 1 0 0 0 0 1 0 0 0 0.65 0"></feColorMatrix>
        <feBlend mode="normal" in2="shape" result="effect2_innerShadow_42_325"></feBlend>
        <feColorMatrix in="SourceAlpha" type="matrix" values="0 0 0 0 0 0 0 0 0 0 0 0 0 0 0 0 0 0 127 0" result="hardAlpha"></feColorMatrix>
        <feOffset dy="-3.78373"></feOffset>
        <feGaussianBlur stdDeviation="1.89187"></feGaussianBlur>
        <feComposite in2="hardAlpha" operator="arithmetic" k2="-1" k3="1"></feComposite>
        <feColorMatrix type="matrix" values="0 0 0 0 0 0 0 0 0 0 0 0 0 0 0 0 0 0 0.42 0"></feColorMatrix>
        <feBlend mode="normal" in2="effect2_innerShadow_42_325" result="effect3_innerShadow_42_325"></feBlend>
        <feColorMatrix in="SourceAlpha" type="matrix" values="0 0 0 0 0 0 0 0 0 0 0 0 0 0 0 0 0 0 127 0" result="hardAlpha"></feColorMatrix>
        <feOffset dy="1.89187"></feOffset>
        <feGaussianBlur stdDeviation="0.945933"></feGaussianBlur>
        <feComposite in2="hardAlpha" operator="arithmetic" k2="-1" k3="1"></feComposite>
        <feColorMatrix type="matrix" values="0 0 0 0 1 0 0 0 0 1 0 0 0 0 1 0 0 0 0.45 0"></feColorMatrix>
        <feBlend mode="normal" in2="effect3_innerShadow_42_325" result="effect4_innerShadow_42_325"></feBlend>
      </filter>
      <linearGradient id="paint0_linear_42_325" x1="17.2813" y1="0" x2="17.2813" y2="34.5625" gradientUnits="userSpaceOnUse">
        <stop stop-color="#5FCCF5" stop-opacity="0.69"></stop>
        <stop offset="1" stop-color="#3B4450" stop-opacity="0.51"></stop>
      </linearGradient>
    </defs>
  </symbol>
  <symbol xmlnsDc="http://purl.org/dc/elements/1.1/" xmlnsCc="http://creativecommons.org/ns#" xmlnsRdf="http://www.w3.org/1999/02/22-rdf-syntax-ns#" xmlnsSvg="http://www.w3.org/2000/svg" xmlns="http://www.w3.org/2000/svg" xmlnsSodipodi="http://sodipodi.sourceforge.net/DTD/sodipodi-0.dtd" xmlnsInkscape="http://www.inkscape.org/namespaces/inkscape" id="quran" version="1.1" inkscapeVersion="0.48.5 r10040" sodipodiDocname="174 BNT #124 muslim icon_next4 submit ocal_c peci-@tmg.svg" viewBox="0 0 93.564217 93.564217">
    <defs id="defs3149"></defs>
    <sodipodi:namedview id="base" pagecolor="#ffffff" bordercolor="#666666" borderopacity="1.0" inkscapePageopacity="0.0" inkscapePageshadow="2" inkscapeZoom="2.8" inkscapeCx="30.808338" inkscapeCy="38.685829" inkscapeDocumentUnits="px" inkscapeCurrentLayer="layer1" showgrid="false" fitMarginTop="0" fitMarginLeft="0" fitMarginRight="0" fitMarginBottom="0" inkscapeWindowWidth="1366" inkscapeWindowHeight="688" inkscapeWindowX="-8" inkscapeWindowY="-8" inkscapeWindowMaximized="1"></sodipodi:namedview>
    <metadata id="metadata3152">
      <rdf:RDF>
        <cc:Work rdfAbout="">
          <dc:format>image/svg+xml</dc:format>
          <dc:type rdfResource="http://purl.org/dc/dcmitype/StillImage"></dc:type>
          <dc:title></dc:title>
        </cc:Work>
      </rdf:RDF>
    </metadata>
    <g inkscapeLabel="Layer 1" inkscapeGroupmode="layer" id="layer1" transform="translate(-181.78932,-457.00864)">
      <g transform="translate(67.290861,442.11587)" id="g3306">
        <rect id="rect3308" width="93.564217" height="93.564217" x="114.49846" y="14.892772" rx="0.31012449" ry="0.31012449"></rect>
      </g>
      <g id="g3310" transform="translate(-135.53556,482.3187)">
        <path d="m 375.55822,-4.4342018 -34.84375,6.59375 c -0.1918,0.0364 -0.25789,0.22787 -0.1875,0.40625 l 0.25,0.59375 2.53125,6.4375 0,0.03125 c 0.79525,2.4189798 2.22956,5.9672198 3.8125,9.6874998 l 8,20.34375 c 0.0704,0.17839 0.30821,0.31767 0.5,0.28125 l 33.40625,-6.40625 -2.34375,5.8125 -33.65625,6.375 c -0.19179,0.0364 -0.39835,-0.0716 -0.46875,-0.25 l -14.1875,-35.9999998 -0.71875,0.125 c -0.19179,0.0364 -0.2579,0.22787 -0.1875,0.4062498 l 14.625,37.125 c 0.0704,0.17839 0.27695,0.28642 0.46875,0.25 l 34.84375,-6.625 c 0.0799,-0.0152 0.14425,-0.0761 0.1875,-0.125 0.005,-0.005 0.0274,0.005 0.0312,0 l 0,-0.03125 3.15625,-7.5 -0.0625,-0.0625 c 0.002,-0.0419 -0.0136,-0.04915 -0.0312,-0.09375 L 376.02697,-4.1842018 c -0.0704,-0.17838 -0.27695,-0.28641 -0.46875,-0.25 z m -35.34375,9 -1.4375,3.65625 14.5,36.4999998 32.5625,-6.3125 1.375,-3.46875 -32.25,6.125 c -0.1918,0.0364 -0.3671,-0.0716 -0.4375,-0.25 L 340.21447,4.5657982 z m 25.1875,2.375 c 0.0112,-0.0364 0.43695,0.40666 0.84375,0.875 0.16778,0.19316 0.41718,0.51413 0.5,0.6875 l 0.0312,0.125 -0.28125,-0.125 -0.25,-0.125 0.125,0.375 c 0.11052,0.33905 0.36868,0.98989 0.65625,1.6562498 0.0619,0.14359 0.38538,0.89625 0.71875,1.6875 0.33338,0.79125 0.65354,1.56411 0.71875,1.71875 0.0652,0.15466 0.18509,0.4078 0.25,0.5625 0.0649,0.15471 0.26006,0.61215 0.4375,1.03125 0.17746,0.41909 0.3448,0.85879 0.375,0.96875 0.14956,0.54497 0.0584,1.06599 -0.21875,1.4375 -0.15495,0.20771 -0.44875,0.48068 -0.6875,0.625 -0.0883,0.0533 -0.17613,0.07915 -0.1875,0.09375 -0.0135,0.0174 0.0457,0.16735 0.125,0.40625 0.25895,0.77528 0.41208,1.66078 0.40625,2.21875 -0.005,0.51263 -0.005,0.49244 -0.21875,-0.21875 -0.18682,-0.62154 -0.36638,-1.09838 -0.6875,-1.90625 -0.14845,-0.37343 -0.14767,-0.38964 -0.21875,-0.40625 -0.47607,-0.11124 -0.69915,-0.18868 -0.90625,-0.28125 -0.3126,-0.13973 -0.69255,-0.33624 -1.28125,-0.6875 -0.16591,-0.099 -0.41505,-0.25582 -0.5625,-0.34375 -0.66309,-0.3954 -1.78092,-0.95064 -2,-1 -0.12731,-0.0287 -0.082,0.0391 0.125,0.1875 0.96124,0.69048 1.40498,1.32521 1.46875,2.09375 0.0223,0.26827 -0.0204,0.3559 -0.15625,0.59375 -0.12097,0.21199 -0.25871,0.36664 -0.5625,0.625 -0.31166,0.26506 -0.31529,0.26107 -1.0625,0.71875 -0.35622,0.2182 -0.75194,0.47736 -0.875,0.5625 -0.65782,0.4552 -1.1177,0.97391 -1.375,1.53125 l -0.0937,0.1875 0.0625,0.21875 c 0.23991,0.87107 0.74468,1.47532 1.40625,1.6875 0.37783,0.12119 1.01099,0.15386 1.4375,0.0625 0.3512,-0.0753 0.97711,-0.33658 1.125,-0.46875 0.0255,-0.0229 0.0312,-0.0742 0.0312,-0.125 -1.7e-4,-0.19692 0.0485,-0.85286 0.0937,-1.15625 l 0.0625,-0.3125 -0.3125,-0.1875 c -0.25412,-0.16215 -0.27992,-0.22233 -0.28125,-0.28125 -0.003,-0.15281 0.14425,-0.54647 0.21875,-0.5625 0.0208,-0.004 0.0776,0.01835 0.125,0.03125 0.0857,0.0233 0.087,0.003 0.25,-0.25 0.27915,-0.43299 0.48939,-0.83163 0.5625,-1.09375 0.0395,-0.1417 0.0421,-0.16562 -0.0625,-0.1875 -0.13029,-0.0273 -0.25891,-0.1758 -0.28125,-0.34375 -0.0655,-0.4924 0.143,-0.78989 0.40625,-0.59375 0.0531,0.0395 0.12354,0.0816 0.15625,0.125 0.0703,0.0932 0.13881,0.35592 0.15625,0.5625 0.012,0.14161 -0.006,0.14713 0.0937,0.21875 0.12594,0.0901 0.19717,0.17643 0.1875,0.28125 -0.01,0.10972 -0.0963,0.10471 -0.25,0 l -0.125,-0.09375 -0.0625,0.125 c -0.11493,0.23531 -0.55479,0.97498 -0.6875,1.15625 l -0.125,0.15625 0.25,0.15625 c 0.12985,0.0857 0.24341,0.16314 0.25,0.1875 0.0183,0.0696 -0.0271,0.20658 -0.15625,0.53125 -0.12983,0.32654 -0.16924,0.58361 -0.1875,0.90625 -0.0113,0.20055 -0.002,0.53832 0.0312,0.53125 0.10631,-0.023 1.11633,-0.83638 1.46875,-1.1875 0.31929,-0.31811 0.67406,-0.75404 0.90625,-1.09375 0.27736,-0.4058 0.27644,-0.41368 0.1875,-0.53125 -0.0234,-0.031 -0.12116,-0.17659 -0.21875,-0.3125 -0.19433,-0.27072 -0.27169,-0.36222 -0.75,-0.9375 -0.17706,-0.21294 -0.43468,-0.52487 -0.5625,-0.6875 l -0.21875,-0.28125 -0.0312,-0.25 c -0.0148,-0.23349 0.01,-0.43657 0.0625,-0.46875 0.0144,-0.009 0.17126,0.0879 0.3125,0.1875 0.14125,0.0996 0.39768,0.27016 0.59375,0.40625 0.19609,0.13609 0.3758,0.26462 0.375,0.28125 -0.003,0.0592 -0.12982,0.07125 -0.28125,0.03125 -0.0844,-0.0223 -0.17885,-0.0148 -0.1875,0 -0.0245,0.0422 0.21586,0.37138 0.53125,0.75 0.41009,0.4923 0.52061,0.63119 0.625,0.9375 0.18689,0.54791 0.11293,1.05189 -0.25,1.65625 -0.38378,0.63911 -1.20816,1.45585 -2.15625,2.125 -0.28004,0.19765 -0.30867,0.22383 -0.25,0.4375 0.0912,0.33168 0.37276,0.72605 0.625,0.90625 0.46466,0.33198 0.88131,0.1747 1.375,-0.53125 0.20163,-0.2883 0.36806,-0.59706 0.6875,-1.3125 0.60608,-1.35742 0.95008,-1.79606 2.25,-2.75 0.47003,-0.34491 0.43964,-0.33842 0.6875,-0.53125 0.0996,-0.0774 0.21151,-0.12344 0.21875,-0.125 0.008,-0.002 0.0796,-0.0537 0.15625,-0.125 l 0.125,-0.15625 -0.125,-0.25 c -0.33444,-0.64137 -0.52883,-1.22359 -0.53125,-1.625 -0.002,-0.37081 0.10567,-0.72278 0.28125,-0.875 0.0961,-0.0833 0.3957,-0.17125 0.53125,-0.15625 0.22305,0.0247 0.57652,0.35897 0.8125,0.75 0.40174,0.66573 0.39804,1.49691 -0.0312,2.21875 l -0.125,0.21875 0.0937,0.09375 c 0.14492,0.12978 0.42692,0.2498 0.625,0.28125 0.22316,0.0354 0.61793,-0.0151 0.84375,-0.125 0.26752,-0.13011 0.6066,-0.46982 0.71875,-0.6875 l 0.0312,-0.0625 -0.46875,-1.21875 c -0.25869,-0.67395 -0.52041,-1.38215 -0.59375,-1.5625 -0.40211,-0.98883 -0.65346,-1.60585 -0.90625,-2.21875 -0.12339,-0.29887 -0.61274,-1.44066 -0.75,-1.78125 -0.11141,-0.27649 -1.01664,-2.50521 -1.65625,-4.0624998 -0.14513,-0.35319 -0.27378,-0.69668 -0.28125,-0.75 -0.0136,-0.0949 0.0668,-0.52489 0.0937,-0.53125 0.0506,-0.0116 0.66439,0.69282 0.875,1 0.16978,0.24761 0.38994,0.62954 0.40625,0.6875 0.0251,0.0865 -0.14057,0.0249 -0.3125,-0.125 -0.12609,-0.10997 -0.13125,-0.09375 -0.0625,0.09375 0.0337,0.0908 0.21364,0.6249998 0.40625,1.1562498 0.31714,0.87497 0.47585,1.23943 1.1875,3 0.11948,0.29594 0.27374,0.70179 0.34375,0.875 0.0701,0.17322 0.26042,0.60786 0.40625,0.96875 0.1459,0.36087 0.35456,0.95153 0.5,1.3125 0.33535,0.83226 0.51337,1.20135 0.6875,1.625 0.10182,0.24787 0.16683,0.44172 0.25,0.78125 0.14833,0.60711 0.165,0.92389 0.0625,1.3125 -0.0958,0.36322 -0.31458,0.59321 -0.6875,0.8125 -0.21045,0.12375 -0.26618,0.16037 -0.53125,0.21875 -0.22664,0.0501 -0.34407,0.0753 -0.46875,0.0625 -0.30229,-0.0308 -0.62247,-0.25028 -0.96875,-0.625 -0.0937,-0.1014 -0.20113,-0.19083 -0.21875,-0.1875 -0.0731,0.0136 -0.74409,0.48403 -1.25,0.875 -0.50179,0.3878 -1.12751,0.93153 -1.28125,1.09375 -0.34394,0.3629 -0.64244,0.83478 -1.15625,1.9375 -0.22026,0.47268 -0.52281,1.01593 -0.6875,1.21875 -0.21813,0.26865 -0.47013,0.39557 -0.8125,0.375 -0.51084,-0.0307 -1.01341,-0.35744 -1.3125,-0.84375 -0.11744,-0.19105 -0.28726,-0.50207 -0.3125,-0.59375 -0.0199,-0.0717 -0.0228,-0.09155 -0.34375,0.03125 -0.36672,0.14025 -0.94888,0.29645 -1.28125,0.34375 -0.7351,0.10465 -1.33582,-0.0535 -1.8125,-0.5 -0.38194,-0.35772 -0.6311,-0.81387 -0.84375,-1.5 -0.0734,-0.23526 -0.14017,-0.45108 -0.15625,-0.46875 -0.0217,-0.024 -0.0736,0.0136 -0.15625,0.125 -0.0609,0.082 -0.1516,0.22194 -0.21875,0.3125 -0.17198,0.23198 -0.26942,0.29339 -0.5,0.34375 -0.34465,0.0748 -0.67057,0.0148 -1.03125,-0.21875 -0.38279,-0.24786 -0.65308,-0.62678 -0.78125,-1.09375 -0.10361,-0.37731 -0.13438,-0.72581 -0.0937,-1.28125 0.0323,-0.4417 0.0409,-0.49739 0.0625,-0.65625 0.0108,-0.0791 0.005,-0.15439 0,-0.15625 -0.005,-0.002 -0.0667,-0.01425 -0.15625,-0.03125 -0.22517,-0.0427 -0.47117,-0.12241 -0.6875,-0.25 -0.43151,-0.2545 -0.62963,-0.54648 -0.78125,-1.09375 -0.16147,-0.58183 -0.15565,-1.21645 0.0625,-2.0625 l 0.0937,-0.34375 -0.0625,-0.09375 c -0.12831,-0.19113 -0.25083,-0.46042 -0.28125,-0.6875 -0.0706,-0.52598 0.0511,-1.03914 0.40625,-1.9375 l 0.125,-0.3125 -0.0937,-0.15625 c -0.0994,-0.23268 -0.13746,-0.59808 -0.125,-0.9375 0.006,-0.15029 0.0251,-0.29392 0.0312,-0.3125 0.041,-0.12672 1.20048,-1.14522 2.03125,-1.78125 1.07126,-0.8201198 2.26477,-1.6131898 3.3125,-2.1874998 0.0736,-0.0403 0.24156,-0.14338 0.375,-0.21875 0.28298,-0.15986 1.17109,-0.58804 1.5625,-0.78125 0.45176,-0.22298 0.74954,-0.24684 1.03125,-0.0625 0.29265,0.19151 0.32901,0.70896 0.125,1.4375 -0.14278,0.50983 -0.30147,0.85362 -0.71875,1.6562498 -0.11494,0.22107 -0.2614,0.57151 -0.34375,0.75 -0.0823,0.17849 -0.15009,0.31638 -0.15625,0.3125 -0.0243,-0.0153 -0.0122,-0.27828 0.0312,-0.5 0.0685,-0.35056 0.21835,-0.73953 0.5625,-1.3749998 0.22886,-0.42259 0.47752,-0.93251 0.5,-1.03125 0.0276,-0.12123 -0.007,-0.33144 -0.0937,-0.4375 -0.0371,-0.0451 -0.12809,-0.104 -0.1875,-0.125 -0.10248,-0.0362 -0.12961,-0.00795 -0.53125,0.09375 -0.65087,0.16517 -0.91794,0.26954 -2.125,1 -0.94405,0.57129 -1.10227,0.67827 -2.25,1.4687498 -0.0777,0.0536 -0.22148,0.15734 -0.3125,0.21875 -0.97084,0.6552 -1.77008,1.29593 -2.53125,2.03125 -0.0395,0.0382 -0.0647,0.08515 -0.0625,0.09375 0.002,0.009 0.0743,0.0301 0.15625,0.0625 0.0821,0.0324 0.24454,0.10218 0.375,0.15625 0.13044,0.0541 0.54315,0.22568 0.90625,0.375 0.36309,0.14933 0.76974,0.31808 0.90625,0.375 0.13653,0.0569 0.37402,0.13617 0.5,0.1875 0.12595,0.0513 0.35689,0.14508 0.53125,0.21875 0.17437,0.0737 0.44631,0.19015 0.59375,0.25 0.14745,0.0599 0.3559,0.14137 0.46875,0.1875 0.71049,0.29043 0.66516,0.27634 0.71875,0.21875 0.0895,-0.0961 0.49673,-0.3539 0.75,-0.46875 0.14749,-0.0669 0.39956,-0.13965 0.59375,-0.1875 l 0.3125,-0.09375 -0.0312,-0.09375 c -0.0185,-0.0523 -0.15115,-0.31901 -0.3125,-0.59375 -0.43362,-0.73821 -0.71561,-1.19183 -0.84375,-1.46875 -0.16494,-0.35628 -0.30463,-0.87393 -0.3125,-1.0625 -0.008,-0.195 0.0241,-0.52298 0.0625,-0.53125 0.0296,-0.006 1.04544,1.19446 1.03125,1.21875 -0.003,0.007 -0.09,-0.01395 -0.1875,-0.03125 l -0.1875,-0.03125 0.0625,0.125 c 0.16616,0.43405 0.26138,0.61251 0.40625,0.875 0.29748,0.53915 0.59856,0.96882 0.90625,1.21875 0.20599,0.16733 0.6106,0.39407 0.875,0.5 0.22019,0.0882 0.24233,0.11008 0.3125,0.25 0.0845,0.16852 0.17499,0.56978 0.15625,0.6875 l 0,0.09375 -0.1875,-0.09375 c -0.21716,-0.12016 -0.44298,-0.18838 -0.75,-0.25 -0.33629,-0.0675 -0.57853,-0.0789 -0.9375,0 -0.3194,0.0701 -0.47246,0.13809 -0.6875,0.28125 l -0.125,0.0625 0.5,0.25 c 0.75548,0.37228 2.08109,1.06451 2.46875,1.28125 0.61889,0.34604 1.12753,0.63528 1.3125,0.71875 0.23163,0.10451 0.56237,0.20087 0.625,0.1875 0.0395,-0.008 0.0618,-0.007 -0.28125,-0.90625 -0.26577,-0.69652 -0.76067,-1.92331 -0.96875,-2.40625 -0.3298,-0.76551 -1.24791,-3.04629 -1.3125,-3.28125 -0.0236,-0.0851 0.005,-0.17135 0.0312,-0.3125 l 0.0312,-0.21875 0.0937,0.09375 c 0.35292,0.34207 0.7354,0.77542 0.9375,1.0625 0.0827,0.11754 0.29902,0.48216 0.3125,0.53125 0.003,0.0127 -0.11891,-0.02765 -0.25,-0.09375 -0.13108,-0.0661 -0.2427,-0.12657 -0.25,-0.125 -0.008,0.002 0.0154,0.05405 0.0312,0.09375 0.016,0.0397 0.1679,0.43428 0.34375,0.875 0.1758,0.44073 0.54412,1.32042 0.8125,1.96875 0.54321,1.31233 0.8039,1.94375 0.96875,2.375 0.0609,0.15948 0.10163,0.29723 0.125,0.3125 0.0232,0.0153 0.14705,0.0135 0.25,0 0.15429,-0.0203 0.21612,-0.0306 0.375,-0.125 0.33828,-0.20147 0.63302,-0.57578 0.59375,-0.71875 -0.023,-0.0818 -0.5941,-1.5705 -0.75,-1.9375 -0.0673,-0.15813 -0.18452,-0.43525 -0.25,-0.59375 -0.0655,-0.15849 -0.24457,-0.57989 -0.40625,-0.96875 -0.16158,-0.38887 -0.36904,-0.86553 -0.4375,-1.03125 -0.0685,-0.1657 -0.18451,-0.43524 -0.25,-0.59375 -0.12555,-0.30385 -0.43047,-1.06872 -0.625,-1.53125 -0.0635,-0.15108 -0.20384,-0.4376698 -0.28125,-0.6249998 -0.0773,-0.18734 -0.26267,-0.67467 -0.4375,-1.0625 -0.39262,-0.87089 -0.45452,-0.97403 -0.4375,-1.28125 0.007,-0.12704 0.0247,-0.26027 0.0312,-0.28125 z m 2.09375,0.1875 c 0.061,0.041 0.66581,0.70921 0.84375,0.9375 0.20467,0.26258 0.4233,0.58291 0.5,0.75 l 0.0312,0.09375 -0.0625,-0.03125 c -0.0431,-0.0227 -0.15304,-0.10153 -0.25,-0.15625 -0.097,-0.0547 -0.18425,-0.10005 -0.1875,-0.09375 -0.006,0.0112 0.20041,0.53974 0.65625,1.5937498 0.12727,0.29428 0.40169,0.89867 0.59375,1.34375 0.19204,0.44509 0.3574,0.8415 0.375,0.875 l 0.0312,0.0625 0.0312,-0.0625 c 0.0235,-0.0375 0.0673,-0.15681 0.0937,-0.25 l 0.0625,-0.15625 -0.1875,-0.1875 c -0.23917,-0.2358 -0.28063,-0.334 -0.21875,-0.53125 0.0814,-0.25944 0.24779,-0.38878 0.40625,-0.28125 0.20124,0.13656 0.33376,0.45655 0.3125,0.8125 -0.006,0.0947 -0.0183,0.18493 0,0.21875 0.0184,0.0334 0.0606,0.0866 0.0625,0.125 0.002,0.0642 -0.0229,0.0782 -0.0937,0.0625 -0.0849,-0.0187 -0.0749,-0.0516 -0.1875,0.21875 -0.0278,0.0669 -0.086,0.20617 -0.125,0.28125 l -0.0625,0.125 0.0937,0.21875 c 0.38066,0.89164 0.56813,1.76762 0.53125,2.34375 -0.0157,0.24542 0.002,0.24596 -0.0312,0.125 -0.14122,-0.50807 -0.5128,-1.468 -0.71875,-1.875 -0.17054,-0.33714 -0.19163,-0.34519 -0.3125,-0.1875 -0.15642,0.20404 -0.39227,0.47843 -0.53125,0.59375 -0.0224,0.0186 -0.0509,0.02307 -0.0625,0.03125 0.0297,-0.05609 0.12142,-0.206 0.28125,-0.46875 l 0.3125,-0.5625 -0.0937,-0.28125 c -0.86087,-2.1604 -1.38657,-3.3700998 -1.90625,-4.4687498 -0.13135,-0.2777 -0.2385,-0.54153 -0.25,-0.59375 -0.0438,-0.19544 -7e-4,-0.66733 0.0625,-0.625 z m -6.3125,0.1875 c 0.0357,-0.008 -0.022,0.16383 -0.0937,0.28125 -0.0864,0.14132 -0.18489,0.21932 -1.1875,0.90625 -0.82421,0.56471 -1.54789,1.09337 -1.84375,1.3125 -0.10681,0.0791 -0.21182,0.15477 -0.21875,0.15625 -0.007,0.002 0.0159,-0.0605 0.0312,-0.125 0.016,-0.0646 0.0365,-0.16982 0.0625,-0.21875 0.0506,-0.0953 0.42022,-0.3877 0.84375,-0.6875 0.45717,-0.32359 2.36665,-1.61648 2.40625,-1.625 z m 3.90625,1.8125 c 0.14938,-0.0321 0.37307,-0.0171 0.5,0.0625 0.298,0.18698 0.34773,0.57928 0.0937,0.8437498 -0.10987,0.11445 -0.20009,0.14969 -0.3125,0.125 -0.18633,-0.0409 -0.23515,-0.0663 -0.3125,-0.4062498 -0.0386,-0.16867 -0.0641,-0.38595 -0.0625,-0.46875 0.004,-0.13439 0.0283,-0.14216 0.0937,-0.15625 z m -2.53125,0.09375 c 0.0181,0.0303 0.0634,0.16912 0.0937,0.375 0.0469,0.31796 0.0971,0.4506398 0.21875,0.5312498 0.11337,0.0751 0.14245,0.0528 0.1875,-0.0625 0.0201,-0.0514 0.0483,-0.09075 0.0625,-0.09375 0.0512,-0.011 0.0659,0.18302 0.0312,0.3125 -0.048,0.17883 -0.16249,0.2537 -0.25,0.1875 -0.2163,-0.16365 -0.37224,-0.61271 -0.375,-1.0625 -10e-4,-0.15651 0.0132,-0.2178 0.0312,-0.1875 z m 2.78125,0.1875 c -0.0964,-0.0105 -0.17719,-0.00395 -0.1875,0.03125 -0.005,0.0132 0.005,0.11018 0.0312,0.21875 0.0339,0.15054 0.0578,0.20497 0.0937,0.21875 0.0716,0.0283 0.28104,-0.0481 0.34375,-0.125 0.0674,-0.0827 0.0496,-0.19382 -0.0312,-0.25 -0.0617,-0.0429 -0.15359,-0.08335 -0.25,-0.09375 z m 2.1875,0.375 0.0312,0.125 c 0.0609,0.3761498 0.12359,0.6043698 0.1875,0.7187498 0.0738,0.13389 0.16145,0.22461 0.25,0.25 0.049,0.014 0.0614,-0.004 0.0937,-0.125 0.0323,-0.12048 0.0648,-0.13386 0.0937,-0.09375 0.0869,0.12067 0.1031,0.3463 0.0312,0.46875 -0.0468,0.08 -0.16864,0.08975 -0.28125,0.03125 -0.20475,-0.10632 -0.36545,-0.39609 -0.40625,-0.8125 -0.0135,-0.13938 -0.007,-0.31948 0,-0.4062498 l 0,-0.15625 z m 4.4375,0 0.3125,0.3124998 c 0.46447,0.4645 0.7027,0.72538 0.875,1 0.23107,0.36827 0.22306,0.39336 -0.0625,0.25 -0.13268,-0.0666 -0.24349,-0.1264 -0.25,-0.125 -0.0124,0.003 -0.016,0.014 0.15625,0.46875 0.23892,0.62926 0.29952,0.77843 1.125,2.6875 0.27963,0.64676 0.55805,1.33342 0.75,1.875 0.17766,0.50152 0.49102,1.60513 0.5,1.78125 0.006,0.10956 -0.0716,0.57841 -0.0937,0.6875 -0.011,-0.0383 -0.12333,-0.29544 -0.21875,-0.5625 -0.0955,-0.26703 -0.20022,-0.6038 -0.25,-0.75 -0.46655,-1.36913 -0.53605,-1.51981 -1.65625,-4.15625 -0.19246,-0.45283 -0.51772,-1.21296 -0.71875,-1.6875 -0.20108,-0.47452 -0.39995,-0.88769 -0.4375,-0.9375 -0.10339,-0.13704 -0.13708,-0.36283 -0.0937,-0.625 l 0.0625,-0.2187498 z m -12.0625,0.9062498 0.0312,0.09375 c 0.0204,0.0497 0.0563,0.22642 0.0625,0.375 0.0146,0.35022 0.0731,0.58897 0.1875,0.71875 0.13297,0.15109 0.15616,0.15417 0.25,0.0625 l 0.0937,-0.09375 0.0312,0.125 c 0.0755,0.27462 -0.17686,0.45642 -0.40625,0.3125 -0.12486,-0.0784 -0.18132,-0.20131 -0.25,-0.53125 -0.0518,-0.24894 -0.0693,-0.66603 -0.0312,-0.90625 l 0.0312,-0.15625 z m 10.21875,0.6875 c -0.15761,-0.006 -0.1465,0.13884 0.0312,0.25 0.12865,0.0807 0.19123,0.0684 0.15625,-0.0625 -0.0269,-0.0957 -0.11813,-0.1849 -0.1875,-0.1875 z m -11.78125,0.1875 c 0.0343,-0.035 0.0827,0.21142 0.0937,0.46875 0.0145,0.33296 0.0736,0.52022 0.1875,0.65625 0.12874,0.15394 0.16257,0.16961 0.25,0.09375 0.0398,-0.0344 0.0781,-0.0722 0.0937,-0.0625 0.045,0.0282 0.0463,0.2275 0,0.3125 -0.0559,0.10344 -0.23365,0.15782 -0.34375,0.09375 -0.17467,-0.10161 -0.2778,-0.36483 -0.3125,-0.78125 -0.0206,-0.2472 2e-4,-0.7499 0.0312,-0.78125 z m 6.3125,0.3125 c 0.0178,-0.009 0.0263,-0.003 0.0625,0 0.14515,0.0103 0.21129,0.0466 0.25,0.1875 0.0194,0.0693 0.0374,0.14509 0.0312,0.15625 -0.006,0.0112 -0.0791,-0.009 -0.15625,-0.03125 -0.28145,-0.08 -0.28288,-0.0636 -0.0937,0.6875 l 0.15625,0.625 -0.1875,-0.15625 c -0.38227,-0.33385 -0.60971,-0.44988 -0.8125,-0.40625 -0.15638,0.0336 -0.28899,-0.0545 -0.34375,-0.25 -0.0336,-0.11789 -0.004,-0.13734 0.15625,-0.125 0.19485,0.015 0.4611,0.12391 0.6875,0.28125 0.10466,0.0727 0.19014,0.10767 0.1875,0.09375 -0.002,-0.014 0.002,-0.0394 0,-0.0625 -0.002,-0.0231 -0.0134,-0.14577 -0.0312,-0.25 -0.0509,-0.31203 -0.027,-0.50809 0.0625,-0.6875 0.0143,-0.0285 0.0136,-0.0533 0.0312,-0.0625 z m -3.3125,0.34375 c 0.0236,-0.0107 0.0259,-0.006 0.0625,0 0.20602,0.0318 0.32298,0.17659 0.28125,0.375 l -0.0312,0.09375 -0.125,-0.09375 c -0.30944,-0.17405 -0.36567,0.004 -0.1875,0.65625 0.12426,0.45499 0.19397,0.89137 0.125,0.90625 -0.0115,0.002 -0.11221,-0.0965 -0.21875,-0.21875 -0.31952,-0.36634 -0.49039,-0.47969 -0.6875,-0.4375 -0.20183,0.0433 -0.38249,-0.13288 -0.40625,-0.40625 -0.009,-0.095 0.0215,-0.10283 0.125,-0.125 0.19732,-0.0425 0.38387,0.0709 0.75,0.40625 0.23774,0.21776 0.26428,0.19831 0.1875,-0.09375 -0.12472,-0.47342 -0.11394,-0.84144 0.0312,-1 0.0348,-0.038 0.0702,-0.0518 0.0937,-0.0625 z m 12.84375,0.6875 c 0.0168,0.004 0.031,0.12011 0.0625,0.34375 0.025,0.17244 0.0752,0.36979 0.0937,0.4375 0.0448,0.16413 0.14137,0.35561 0.25,0.4375 l 0.0937,0.0625 0.0312,-0.0625 c 0.0431,-0.10114 0.11747,-0.0787 0.15625,0.0625 0.0408,0.14837 -0.0188,0.25834 -0.125,0.28125 -0.0556,0.012 -0.096,0.005 -0.1875,-0.0625 -0.23228,-0.17056 -0.36482,-0.50475 -0.40625,-1.1875 -0.0133,-0.21895 0.0145,-0.31683 0.0312,-0.3125 z m -7.28125,0.09375 0.0312,0.125 c 0.0938,0.62975 0.1023,0.72837 0.1875,0.875 0.0527,0.0908 0.32144,0.29278 0.375,0.28125 0.0134,-0.003 0.0274,-0.0769 0.0312,-0.15625 0.007,-0.14931 -10e-5,-0.17243 0.0625,-0.125 0.10754,0.0814 0.16596,0.40897 0.0937,0.53125 -0.0476,0.0814 -0.17774,0.11195 -0.28125,0.0625 -0.19296,-0.0926 -0.44129,-0.50131 -0.5,-0.84375 -0.0395,-0.22854 -0.0312,-0.48764 0,-0.625 l 0,-0.125 z m 4.09375,0.4375 c 0.0128,0.0386 0.019,0.14511 0.0312,0.3125 0.0386,0.52557 0.16108,0.80373 0.375,0.9375 l 0.0937,0.03125 0.0312,-0.125 0.0625,-0.125 0.0312,0.15625 c 0.0278,0.12531 0.0227,0.23276 0,0.3125 -0.0291,0.0989 -0.036,0.10586 -0.125,0.125 -0.0784,0.017 -0.13034,0.01415 -0.1875,-0.03125 -0.1229,-0.0979 -0.19986,-0.24134 -0.28125,-0.59375 -0.0748,-0.32425 -0.0907,-0.71427 -0.0625,-0.9375 0.0119,-0.0941 0.0186,-0.10113 0.0312,-0.0625 z m -14.4375,0.375 -0.0312,0.09375 c -0.18304,0.43968 -0.33892,1.02202 -0.34375,1.3125 -0.005,0.27199 0.1794,0.71324 0.3125,0.78125 0.0989,0.0505 0.19469,0.008 0.28125,-0.15625 0.10312,-0.19593 0.17182,-0.30708 0.1875,-0.25 0.0271,0.0967 0.024,0.35702 -0.0312,0.53125 -0.076,0.23983 -0.21668,0.46112 -0.40625,0.71875 -0.12748,0.17328 -0.1551,0.2103 -0.1875,0.40625 -0.1724,1.04348 -0.16099,1.57303 0.0312,2 0.0961,0.21346 0.31368,0.47901 0.4375,0.5625 0.22861,0.15413 0.67482,0.16076 0.90625,0 0.40036,-0.27807 1.17701,-1.23239 1.6875,-2.0625 0.46662,-0.75877 1.15817,-1.82922 1.21875,-1.90625 l 0.0625,-0.09375 -0.96875,-0.46875 c -1.13141,-0.52225 -2.53103,-1.16795 -2.90625,-1.34375 l -0.25,-0.125 z m 1.8125,1.3125 c 0.0289,0.003 0.0543,0.0061 0.0937,0.03125 l 0.0937,0.0625 0.0625,0.34375 0.0937,0.3125 0.0937,0.09375 c 0.21168,0.14896 0.36978,0.3707 0.3125,0.46875 -0.0175,0.03 -0.0571,0.03675 -0.15625,-0.03125 -0.27546,-0.18864 -0.25123,-0.19904 -0.34375,0.09375 -0.21003,0.66468 -0.64767,1.36248 -1.34375,2.15625 l -0.1875,0.21875 0.125,-0.21875 c 0.0676,-0.1187 0.30221,-0.51633 0.53125,-0.90625 0.38406,-0.65383 0.6162,-1.1043 0.71875,-1.40625 l 0.0312,-0.125 -0.125,-0.0625 c -0.17265,-0.10273 -0.29642,-0.26516 -0.34375,-0.4375 -0.0735,-0.2679 0.0281,-0.48691 0.25,-0.5625 0.0478,-0.0163 0.065,-0.03405 0.0937,-0.03125 z m 7.28125,0.03125 c 0.014,0.007 0.0197,0.11033 0.0312,0.28125 0.0334,0.49077 0.11839,0.71394 0.3125,0.84375 l 0.0625,0.03125 0.0625,-0.125 c 0.0452,-0.0858 0.0663,-0.11086 0.0937,-0.09375 0.0563,0.0349 0.0571,0.25661 0,0.375 -0.0642,0.13193 -0.13815,0.17868 -0.25,0.125 -0.1579,-0.0758 -0.23581,-0.15588 -0.3125,-0.4375 -0.0705,-0.25889 -0.0887,-0.47289 -0.0625,-0.78125 0.0136,-0.15762 0.0485,-0.22609 0.0625,-0.21875 z m -7.34375,0.34375 c -0.0212,0.005 -0.0342,0.0243 -0.0625,0.0625 -0.0389,0.0524 -0.0395,0.0811 0,0.125 0.0503,0.0557 0.18215,0.10655 0.25,0.09375 0.032,-0.006 0.0587,-0.0488 0.0312,-0.125 -0.0229,-0.0626 -0.0811,-0.10294 -0.125,-0.125 -0.0435,-0.0218 -0.0725,-0.03615 -0.0937,-0.03125 z m 12.875,0.0625 c 0.0584,-0.0396 0.184,0.0123 0.5625,0.25 l 0.34375,0.21875 -0.0625,0.21875 c -0.0676,0.23705 -0.15135,0.37125 -0.21875,0.40625 -0.0282,0.0148 -0.16035,-0.0546 -0.40625,-0.1875 -0.20447,-0.11047 -0.37049,-0.18847 -0.375,-0.1875 -0.005,9.6e-4 -0.0618,0.12643 -0.125,0.28125 -0.0632,0.15482 -0.13952,0.27765 -0.15625,0.28125 -0.10668,0.0229 -0.75503,-0.34207 -0.78125,-0.4375 -0.005,-0.0194 0.0155,-0.17433 0.0625,-0.34375 l 0.0937,-0.3125 0.0937,0.03125 c 0.0511,0.0167 0.22904,0.12742 0.40625,0.21875 l 0.3125,0.15625 0.0625,-0.0625 c 0.0218,-0.04 0.0571,-0.16697 0.0937,-0.28125 0.0366,-0.11427 0.0727,-0.23567 0.0937,-0.25 z m -2.46875,0.1875 c 0.0108,0.007 0.009,0.0634 0,0.125 -0.0153,0.10017 -0.0536,0.17104 -0.40625,0.5 -0.21709,0.20249 -0.42712,0.39752 -0.46875,0.4375 l -0.0625,0.0625 0,-0.09375 c -0.004,-0.053 -0.0131,-0.10314 0,-0.125 0.0315,-0.0532 0.64515,-0.66995 0.8125,-0.8125 0.073,-0.0622 0.11464,-0.10028 0.125,-0.09375 z m -7.3125,0.40625 -0.125,0.125 c -0.3573,0.35878 -0.6276,0.75293 -1.5625,2.25 -0.13054,0.20905 -0.4761,0.71536 -0.625,0.90625 -0.27486,0.35235 -0.83649,0.90318 -1.03125,1 -0.0508,0.0253 -0.0974,0.066 -0.125,0.21875 -0.11929,0.6617 -0.11196,1.37595 0,1.78125 0.12961,0.46967 0.47388,0.94419 0.78125,1.03125 0.22825,0.0647 0.46937,-0.0246 0.71875,-0.21875 0.15828,-0.12326 0.19951,-0.17344 0.53125,-0.75 0.36409,-0.63274 0.55317,-0.88639 0.875,-1.21875 0.30654,-0.31659 0.96096,-0.81768 1.53125,-1.1875 0.83279,-0.54001 1.45277,-1.04265 1.84375,-1.46875 0.12752,-0.13898 0.22012,-0.24499 0.21875,-0.25 -0.0229,-0.081 -0.31545,-0.41564 -0.53125,-0.625 -0.47121,-0.45712 -1.13727,-0.90635 -2.125,-1.40625 l -0.375,-0.1875 z m 0.71875,1.65625 c 0.0372,-0.0379 0.22351,0.0332 0.5625,0.25 l 0.34375,0.21875 -0.0312,0.125 c -0.10792,0.39271 -0.18796,0.48365 -0.28125,0.5 -0.0188,0.003 -0.13627,-0.046 -0.28125,-0.125 -0.44086,-0.24012 -0.47577,-0.24306 -0.5,-0.1875 -0.0115,0.0264 -0.0711,0.15005 -0.125,0.28125 -0.0538,0.13119 -0.0892,0.24901 -0.0937,0.25 -0.0858,0.0185 -0.71025,-0.29294 -0.8125,-0.40625 -0.0337,-0.0373 -0.033,-0.10493 0.0312,-0.34375 0.0427,-0.16135 0.0854,-0.32875 0.0937,-0.34375 0.0222,-0.0401 0.12392,5.5e-4 0.5,0.1875 0.18622,0.0926 0.33385,0.15838 0.34375,0.15625 0.0286,-0.006 0.0823,-0.11992 0.15625,-0.34375 0.0376,-0.11391 0.0827,-0.2073 0.0937,-0.21875 z m 9.0625,0.59375 c -0.0722,0.0211 -0.13441,0.0804 -0.1875,0.15625 -0.15016,0.2145 -0.16621,0.42684 -0.0312,0.75 0.13077,0.3136 0.4353,0.75325 0.59375,0.875 0.0351,0.027 0.17011,-0.10178 0.40625,-0.34375 0.13315,-0.13642 0.2689,-0.35684 0.25,-0.4375 -0.0953,-0.40726 -0.45445,-0.85001 -0.78125,-0.96875 -0.0919,-0.0334 -0.17783,-0.05245 -0.25,-0.03125 z m 1.8125,0.1875 c 0.009,0.033 0.0274,0.0984 0.0312,0.21875 0.0144,0.46295 0.13163,0.81278 0.34375,0.9375 0.0959,0.0563 0.13248,0.008 0.125,-0.125 -0.005,-0.0902 0.037,-0.13692 0.0625,-0.0625 0.0508,0.14908 0.041,0.29975 -0.0312,0.4375 -0.0265,0.051 -0.0533,0.07835 -0.125,0.09375 -0.0858,0.0185 -0.12428,0.03185 -0.1875,-0.03125 -0.10686,-0.10686 -0.17866,-0.33253 -0.21875,-0.625 -0.032,-0.23255 -0.0505,-0.57371 -0.0312,-0.78125 0.007,-0.0781 0.0226,-0.0955 0.0312,-0.0625 z m -12.59375,0.59375 c 0.0621,-0.003 0.14422,0.04705 0.21875,0.09375 0.10475,0.0658 0.13097,0.0779 0.15625,0.1875 0.0157,0.0685 0.005,0.1405 0,0.15625 -0.017,0.058 -0.0827,0.04315 -0.1875,-0.03125 -0.0594,-0.0422 -0.13552,-0.067 -0.15625,-0.0625 -0.0496,0.0107 -0.0464,0.20677 0.0312,0.625 0.0681,0.364 0.084,0.62088 0.0625,0.71875 -0.0132,0.0596 9e-5,0.05505 -0.125,-0.09375 -0.0743,-0.0884 -0.21543,-0.23726 -0.3125,-0.3125 -0.17484,-0.13553 -0.20206,-0.13142 -0.3125,-0.09375 -0.102,0.0347 -0.12175,0.0124 -0.25,-0.0625 -0.15157,-0.0883 -0.1559,-0.14495 -0.15625,-0.34375 -3.5e-4,-0.13555 0.0391,-0.17796 0.15625,-0.15625 0.0942,0.0174 0.42084,0.21158 0.65625,0.40625 0.15631,0.12926 0.20902,0.1427 0.1875,0.0625 -0.006,-0.0261 -0.0611,-0.19381 -0.0937,-0.375 -0.0525,-0.27754 -0.0293,-0.34057 0,-0.5 0.0345,-0.18817 0.0261,-0.21401 0.125,-0.21875 z m 9.21875,0.03125 c 0.0303,1.4e-4 0.0772,-6.8e-4 0.0937,0.03125 0.0816,0.15775 0.0885,0.22856 0.0312,0.25 -0.0345,0.0128 -0.0957,-0.0031 -0.125,-0.03125 -0.0467,-0.0458 -0.0427,-0.03965 -0.125,0.03125 -0.0953,0.0817 -0.0849,0.11007 -0.0312,0.1875 0.0831,0.11981 0.33741,0.12216 0.53125,0 0.18908,-0.11921 0.23432,-0.11962 0.25,-0.0625 0.0264,0.093 -0.0924,0.24721 -0.28125,0.40625 -0.10149,0.0855 -0.20262,0.18615 -0.25,0.25 -0.0854,0.11528 -0.27176,0.25328 -0.28125,0.21875 -0.005,-0.0194 0.0628,-0.15589 0.125,-0.28125 0.0533,-0.10709 0.0409,-0.1434 -0.125,-0.28125 -0.18095,-0.15029 -0.20406,-0.24633 -0.125,-0.40625 0.10119,-0.20443 0.22149,-0.31292 0.3125,-0.3125 z m -4.4375,0.375 c -0.0198,0.013 -0.0374,0.05405 -0.0312,0.09375 0.0137,0.0833 0.20025,0.20493 0.28125,0.1875 0.0467,-0.0101 0.0691,-0.0081 0.0312,-0.09375 -0.0585,-0.13122 -0.22175,-0.22641 -0.28125,-0.1875 z m -1.125,1.0625 c 0.0236,-0.009 0.0225,0.0307 0.0312,0.0625 0.0227,0.0802 -0.0847,0.27523 -0.1875,0.375 -0.0524,0.0507 -0.39087,0.33478 -0.78125,0.625 -0.74015,0.55025 -1.227,0.95177 -1.3125,1.0625 l -0.0625,0.0625 0.125,0.09375 c 0.20192,0.19286 0.24363,0.39903 0.0625,0.34375 -0.0336,-0.0103 -0.12772,-0.05855 -0.1875,-0.09375 -0.0975,-0.0575 -0.0885,-0.0844 -0.125,-0.21875 -0.0242,-0.0879 -0.0439,-0.18029 -0.0312,-0.25 0.0367,-0.22284 0.10093,-0.30671 0.75,-0.78125 0.33637,-0.24591 0.68269,-0.47915 0.75,-0.53125 0.0673,-0.0521 0.22796,-0.20248 0.375,-0.3125 0.14704,-0.10999 0.35158,-0.24513 0.4375,-0.3125 0.0919,-0.0721 0.13265,-0.11555 0.15625,-0.125 z m -5.25,0.15625 c 0.005,0.0256 -8.5e-4,0.10362 0,0.21875 0.002,0.4975 0.0983,0.77956 0.25,0.90625 0.0446,0.0372 0.0505,0.039 0.0937,0 0.0278,-0.0251 0.074,-0.0707 0.0937,-0.125 l 0.0312,-0.09375 0.0312,0.15625 c 0.0396,0.14281 0.0353,0.19472 0,0.28125 -0.051,0.12447 -0.0893,0.14839 -0.1875,0.15625 -0.11317,0.009 -0.23076,-0.0613 -0.3125,-0.21875 -0.063,-0.12112 -0.0747,-0.18923 -0.0937,-0.4375 -0.0228,-0.29592 0.005,-0.68795 0.0625,-0.8125 0.0147,-0.0319 0.0265,-0.05685 0.0312,-0.03125 z m 7,0.21875 c 0.0338,-0.0268 0.0961,-0.0146 0.21875,0 0.32216,0.0384 0.5554,0.22915 0.59375,0.46875 0.0438,0.26915 -0.14705,0.53798 -0.40625,0.59375 -0.1221,0.0263 -0.13387,0.02195 -0.21875,-0.03125 -0.0791,-0.0496 -0.13095,-0.0631 -0.15625,-0.15625 -0.0395,-0.14256 -0.0518,-0.43258 -0.0625,-0.6875 -0.005,-0.10873 -0.003,-0.16064 0.0312,-0.1875 z m 0.125,0.28125 c -0.068,0.01841 -0.0699,0.09626 -0.0312,0.28125 0.0342,0.1641 0.0471,0.1894 0.0937,0.21875 0.0768,0.0482 0.24123,0.0287 0.34375,-0.0625 0.046,-0.041 0.104,-0.0976 0.125,-0.125 0.0368,-0.0479 0.0261,-0.0524 -0.0625,-0.125 -0.11617,-0.0951 -0.23537,-0.16811 -0.375,-0.1875 -0.0369,-0.0051 -0.0711,-0.0061 -0.0937,0 z m 6.46875,0.96875 c 0.003,0.006 0.0276,-0.0129 0.0312,0 0.01,0.0311 0.0206,0.18414 0.0312,0.34375 0.0268,0.37618 0.0788,0.58868 0.21875,0.71875 0.12213,0.1136 0.16979,0.08895 0.21875,-0.09375 0.0192,-0.0716 0.0444,-0.16265 0.0625,-0.1875 0.0298,-0.0409 0.046,-0.02515 0.0625,0.09375 0.0171,0.12516 -0.009,0.34486 -0.0625,0.46875 -0.0311,0.0728 -0.15018,0.12153 -0.25,0.09375 -0.19592,-0.0544 -0.33017,-0.51625 -0.34375,-1.125 -0.003,-0.12329 0.0211,-0.26949 0.0312,-0.3125 z m -9.03125,0.1875 c 0.0526,-0.003 0.12786,0.0143 0.21875,0.0625 0.16739,0.0888 0.20746,0.12419 0.1875,0.28125 l -0.0312,0.09375 -0.15625,-0.0625 c -0.18447,-0.08 -0.24483,-0.08965 -0.25,-0.03125 -9.3e-4,0.0199 0.0796,0.24976 0.15625,0.5 0.11431,0.37215 0.12205,0.47416 0.125,0.625 0.002,0.10141 0.009,0.20314 0,0.21875 -0.009,0.0162 -0.072,-0.0113 -0.125,-0.0625 -0.0514,-0.0495 -0.13163,-0.12891 -0.1875,-0.1875 -0.20359,-0.21323 -0.40157,-0.31588 -0.5625,-0.28125 -0.1158,0.0249 -0.20176,-0.0431 -0.25,-0.21875 -0.0543,-0.19786 -0.0245,-0.23121 0.0625,-0.25 0.13235,-0.0285 0.40904,0.12393 0.71875,0.40625 0.0514,0.0468 0.11582,0.09565 0.125,0.09375 0.0333,-0.007 0.0126,-0.13217 -0.0625,-0.40625 -0.0788,-0.28818 -0.10605,-0.55507 -0.0625,-0.6875 0.0177,-0.0549 0.0412,-0.09055 0.0937,-0.09375 z m 8.0625,0.625 c 0.0995,-0.0214 0.24944,0.0487 0.34375,0.15625 0.0785,0.0894 0.0852,0.0865 0.0625,0.1875 -0.0131,0.0568 -0.0226,0.12314 -0.0312,0.125 -0.009,0.002 -0.10157,-0.026 -0.1875,-0.0625 -0.17164,-0.0728 -0.26447,-0.0803 -0.28125,0 -0.006,0.0288 0.0383,0.23741 0.0937,0.46875 0.0947,0.40076 0.14009,0.79576 0.0937,0.875 -0.009,0.0158 -0.11358,-0.0564 -0.21875,-0.1875 -0.24428,-0.30415 -0.42713,-0.46605 -0.625,-0.46875 -0.20063,-0.003 -0.24128,-0.007 -0.34375,-0.125 -0.1071,-0.12288 -0.15155,-0.28074 -0.125,-0.40625 0.0158,-0.0752 0.0288,-0.0643 0.0937,-0.0625 0.2366,0.006 0.49121,0.158 0.875,0.5625 l 0.1875,0.1875 -0.0312,-0.125 c -0.009,-0.0668 -0.0346,-0.24383 -0.0625,-0.40625 -0.0302,-0.16203 -0.0387,-0.34561 -0.0312,-0.40625 0.0193,-0.15478 0.1025,-0.29421 0.1875,-0.3125 z m -11.28125,0.6875 c 0.006,0.004 0.007,0.10501 0,0.21875 -0.0166,0.25937 0.0162,0.48532 0.125,0.59375 0.0862,0.086 0.12862,0.0782 0.21875,0 0.0352,-0.0305 0.0507,-0.03865 0.0625,-0.03125 0.0338,0.0213 0.0766,0.14793 0.0625,0.21875 -0.0417,0.19977 -0.15688,0.2622 -0.3125,0.1875 -0.16932,-0.0813 -0.29941,-0.40991 -0.28125,-0.78125 0.008,-0.16692 0.0962,-0.42432 0.125,-0.40625 z m 9.21875,0.71875 c 0.0586,-0.0125 0.17274,0.0713 0.1875,0.125 0.0119,0.043 0.008,0.0513 -0.0625,0.0625 -0.13652,0.0217 -0.1347,0.006 -0.15625,0.09375 l -0.0312,0.09375 0,-0.09375 c -0.007,-0.10959 0.0221,-0.27253 0.0625,-0.28125 z m 0.78125,0.4375 c 0.0237,-0.0103 0.0322,0.0081 0.0625,0.03125 0.0338,0.0255 0.042,0.0255 0,0.0625 -0.064,0.0565 -0.0916,0.11522 -0.0625,0.15625 0.0376,0.0529 0.0994,0.03675 0.21875,-0.03125 0.063,-0.0358 0.11629,-0.068 0.125,-0.0625 0.0432,0.027 -0.0652,0.19591 -0.25,0.34375 -0.28089,0.22478 -0.39316,0.29485 -0.5,0.28125 -0.0623,-0.008 -0.12244,0.0127 -0.21875,0.0625 -0.16029,0.0828 -0.25874,0.0853 -0.375,0.0625 -0.0489,-0.01 -0.12373,0.01085 -0.1875,0.03125 -0.0901,0.0288 -0.15208,0.032 -0.21875,0 -0.0844,-0.0408 -0.0603,-0.0476 -0.0625,-0.1875 -0.004,-0.27963 0.0776,-0.43732 0.1875,-0.34375 0.0714,0.0607 0.0675,0.0718 -0.0312,0.15625 -0.12382,0.10608 -0.15555,0.19167 -0.0625,0.25 0.0401,0.0251 0.10276,0.04455 0.125,0.03125 0.12012,-0.071 0.26016,-0.18965 0.28125,-0.21875 0.0183,-0.0254 -0.004,-0.0589 -0.0625,-0.15625 -0.0875,-0.14473 -0.0951,-0.15229 0,-0.125 0.0629,0.0181 0.0882,0.0326 0.125,0.21875 0.0423,0.21681 0.0618,0.21902 0.1875,0.15625 0.0658,-0.0329 0.0763,-0.10838 0.0937,-0.34375 0.01,-0.13439 0.0331,-0.16974 0.0937,-0.21875 0.0833,-0.0674 0.16983,-0.0643 0.1875,0 0.006,0.0247 -0.0272,0.02315 -0.0625,0.03125 -0.0722,0.0168 -0.15882,0.15417 -0.125,0.1875 0.0133,0.0133 0.0564,0.008 0.0937,0 0.0642,-0.0137 0.0793,-0.01045 0.0937,0.09375 0.0149,0.10795 0.0168,0.11039 0.0937,0.09375 0.0435,-0.009 0.0928,-0.031 0.125,-0.0625 0.0507,-0.0496 0.0621,-0.0747 0.0312,-0.1875 -0.0279,-0.10119 -0.0355,-0.1541 0,-0.21875 0.0256,-0.0472 0.07,-0.08355 0.0937,-0.09375 z m -6.09375,0.5625 c 0.009,-0.002 0.0313,0.12588 0.0625,0.28125 0.0628,0.30599 0.12948,0.42947 0.28125,0.53125 l 0.0937,0.0625 0.0625,-0.125 c 0.0777,-0.12929 0.0906,-0.14464 0.125,0.03125 0.0182,0.0918 -0.0482,0.33395 -0.0937,0.34375 -0.02,0.004 -0.0449,0.02125 -0.0625,0.03125 -0.0178,0.01 -0.0627,6.6e-4 -0.0937,0 -0.0311,-9e-4 -0.0943,-0.01435 -0.125,-0.03125 -0.0765,-0.042 -0.18102,-0.23757 -0.21875,-0.375 -0.0656,-0.23904 -0.0905,-0.73729 -0.0312,-0.75 z" id="path3312" inkscapeConnectorCurvature="0"></path>
      </g>
    </g>
  </symbol>
  <symbol fill="none" xmlns="http://www.w3.org/2000/svg" viewBox="0 0 24 24" id="search-icon">
    <path fill-rule="evenodd" clip-rule="evenodd" d="M14.0966 13.0313C11.5012 14.9737 7.78242 14.5539 5.77305 12.2515C3.76368 9.94916 4.10063 6.49397 6.69601 4.55153C9.29139 2.60909 13.0102 3.02889 15.0195 5.33127C17.0289 7.63365 16.692 11.0888 14.0966 13.0313ZM14.9679 16.4977C11.0142 18.5146 5.94922 17.6817 3.01297 14.3173C-0.282597 10.5411 0.351452 5.00595 4.42915 1.95411C8.50686 -1.09773 14.4841 -0.510574 17.7796 3.26556C20.7159 6.62999 20.5327 11.3908 17.5738 14.5474L22.9144 20.6669C23.5054 21.3441 23.4012 22.3296 22.6816 22.8682C21.962 23.4068 20.8996 23.2944 20.3085 22.6172L14.9679 16.4977Z" fill="#CAD4E0"></path>
  </symbol>
  <symbol fill="none" xmlns="http://www.w3.org/2000/svg" viewBox="0 0 13 9" id="vee-icon">
    <path fill-rule="evenodd" clip-rule="evenodd" d="M7.02185 8.59223C6.77003 8.76713 6.4393 8.72827 6.22254 8.47567L0.957886 2.3405C0.701721 2.04198 0.701721 1.55798 0.957886 1.25946C1.21405 0.960934 1.62938 0.960934 1.88554 1.25946L6.7303 6.90529L11.6419 1.18159C11.898 0.883072 12.3134 0.883072 12.5695 1.18159C12.8257 1.48012 12.8257 1.96412 12.5695 2.26264L7.30487 8.3978C7.22325 8.49291 7.12549 8.55772 7.02185 8.59223Z" fill="black"></path>
  </symbol>
  <symbol fill="none" xmlns="http://www.w3.org/2000/svg" viewBox="0 0 13 14" id="+">
    <path d="M12.421 5.49609V8.4375H0.725647V5.49609H12.421ZM8.17877 0.867188V13.2891H4.97955V0.867188H8.17877Z" fill="white"></path>
  </symbol>
  <symbol version="1.1" xmlns="http://www.w3.org/2000/svg" viewBox="0 0 20 20" id="arrow-long-left">
    <title>arrow-long-left</title>
    <path d="M0.75 10l5.25-5.5v3.5h13v4h-13v3.5l-5.25-5.5z"></path>
  </symbol>
  <symbol version="1.1" xmlns="http://www.w3.org/2000/svg" viewBox="0 0 20 20" id="arrow-long-right">
    <title>arrow-long-right</title>
    <path d="M14 15.5v-3.5h-13v-4h13v-3.5l5.25 5.5-5.25 5.5z"></path>
  </symbol>
  <symbol version="1.1" xmlns="http://www.w3.org/2000/svg" viewBox="0 0 20 20" id="attachment">
    <title>attachment</title>
    <path d="M5.602 19.8c-1.293 0-2.504-0.555-3.378-1.44-1.695-1.716-2.167-4.711 0.209-7.116 1.391-1.408 6.966-7.053 9.748-9.87 0.988-1 2.245-1.387 3.448-1.060 1.183 0.32 2.151 1.301 2.468 2.498 0.322 1.22-0.059 2.493-1.046 3.493l-9.323 9.44c-0.532 0.539-1.134 0.858-1.738 0.922-0.599 0.064-1.17-0.13-1.57-0.535-0.724-0.736-0.828-2.117 0.378-3.337l6.548-6.63c0.269-0.272 0.705-0.272 0.974 0s0.269 0.714 0 0.986l-6.549 6.631c-0.566 0.572-0.618 1.119-0.377 1.364 0.106 0.106 0.266 0.155 0.451 0.134 0.283-0.029 0.606-0.216 0.909-0.521l9.323-9.439c0.64-0.648 0.885-1.41 0.69-2.145-0.192-0.725-0.778-1.318-1.493-1.513-0.726-0.197-1.48 0.052-2.12 0.7-2.782 2.818-8.356 8.462-9.748 9.87-1.816 1.839-1.381 3.956-0.209 5.143 1.173 1.187 3.262 1.629 5.079-0.212l9.748-9.87c0.269-0.272 0.705-0.272 0.974 0s0.269 0.714 0 0.987l-9.748 9.87c-1.149 1.162-2.436 1.65-3.648 1.65z"></path>
  </symbol>
  <symbol version="1.1" xmlns="http://www.w3.org/2000/svg" viewBox="0 0 20 20" id="chevron-down">
    <title>chevron-down</title>
    <path d="M4.516 7.548c0.436-0.446 1.043-0.481 1.576 0l3.908 3.747 3.908-3.747c0.533-0.481 1.141-0.446 1.574 0 0.436 0.445 0.408 1.197 0 1.615-0.406 0.418-4.695 4.502-4.695 4.502-0.217 0.223-0.502 0.335-0.787 0.335s-0.57-0.112-0.789-0.335c0 0-4.287-4.084-4.695-4.502s-0.436-1.17 0-1.615z"></path>
  </symbol>
  <symbol version="1.1" xmlns="http://www.w3.org/2000/svg" viewBox="0 0 20 20" id="chevron-left">
    <title>chevron-left</title>
    <path d="M12.452 4.516c0.446 0.436 0.481 1.043 0 1.576l-3.747 3.908 3.747 3.908c0.481 0.533 0.446 1.141 0 1.574-0.445 0.436-1.197 0.408-1.615 0-0.418-0.406-4.502-4.695-4.502-4.695-0.223-0.217-0.335-0.502-0.335-0.787s0.112-0.57 0.335-0.789c0 0 4.084-4.287 4.502-4.695s1.17-0.436 1.615 0z"></path>
  </symbol>
  <symbol version="1.1" xmlns="http://www.w3.org/2000/svg" viewBox="0 0 20 20" id="chevron-right">
    <title>chevron-right</title>
    <path d="M9.163 4.516c0.418 0.408 4.502 4.695 4.502 4.695 0.223 0.219 0.335 0.504 0.335 0.789s-0.112 0.57-0.335 0.787c0 0-4.084 4.289-4.502 4.695-0.418 0.408-1.17 0.436-1.615 0-0.446-0.434-0.481-1.041 0-1.574l3.747-3.908-3.747-3.908c-0.481-0.533-0.446-1.141 0-1.576s1.197-0.409 1.615 0z"></path>
  </symbol>
  <symbol version="1.1" xmlns="http://www.w3.org/2000/svg" viewBox="0 0 20 20" id="chevron-thin-down">
    <title>chevron-thin-down</title>
    <path d="M17.418 6.109c0.272-0.268 0.709-0.268 0.979 0s0.271 0.701 0 0.969l-7.908 7.83c-0.27 0.268-0.707 0.268-0.979 0l-7.908-7.83c-0.27-0.268-0.27-0.701 0-0.969s0.709-0.268 0.979 0l7.419 7.141 7.418-7.141z"></path>
  </symbol>
  <symbol fill="none" xmlns="http://www.w3.org/2000/svg" viewBox="0 0 152 137" id="fav (1)">
    <path opacity="0.64" d="M101.064 56.8429C101.396 50.9307 100.071 46.5654 96.7982 44.0136C93.4865 41.4317 88.7587 41.4485 84.7504 43.3839C81.464 45.0181 79.4504 46.8424 78.1099 48.8828C75.8578 52.3108 76.183 56.5138 77.6233 60.9691C70.7279 62.6901 66.1229 65.8882 63.2543 70.2548C56.4982 80.5388 60.951 91.0453 70.4625 98.4606C72.0799 99.7215 73.7124 100.871 75.4589 101.492C79.5115 102.059 84.1891 101.942 89.4077 101.444L89.4467 100.055C86.3641 98.4538 83.3151 96.447 80.35 94.1354C69.0285 85.309 65.4312 75.7163 68.8092 70.5743C71.5707 66.3709 81.5453 66.4335 96.5441 71.5236C98.9346 69.7463 101.213 67.6965 103.426 65.6574L103.255 65.0307C94.1776 62.2734 88.452 61.3272 87.4123 60.5166C86.4881 59.7961 85.5459 57.9507 84.8098 55.5255C84.1693 52.8663 83.7984 50.4173 84.6563 49.1114C85.2193 48.2544 90.8932 48.4815 94.7826 51.5136C96.5155 52.8646 98.0304 54.7245 99.0628 57.319L101.064 56.8429Z" fill="#3498DB"></path>
    <path opacity="0.64" d="M101.064 56.8429C101.396 50.9307 100.071 46.5654 96.7982 44.0136C93.4865 41.4317 88.7587 41.4485 84.7504 43.3839C81.464 45.0181 79.4504 46.8424 78.1099 48.8828C75.8578 52.3108 76.183 56.5138 77.6233 60.9691C70.7279 62.6901 66.1229 65.8882 63.2543 70.2548C56.4982 80.5388 60.951 91.0453 70.4625 98.4606C72.0799 99.7215 73.7124 100.871 75.4589 101.492C79.5115 102.059 84.1891 101.942 89.4077 101.444L89.4467 100.055C86.3641 98.4538 83.3151 96.447 80.35 94.1354C69.0285 85.309 65.4312 75.7163 68.8092 70.5743C71.5707 66.3709 81.5453 66.4335 96.5441 71.5236C98.9346 69.7463 101.213 67.6965 103.426 65.6574L103.255 65.0307C94.1776 62.2734 88.452 61.3272 87.4123 60.5166C86.4881 59.7961 85.5459 57.9507 84.8098 55.5255C84.1693 52.8663 83.7984 50.4173 84.6563 49.1114C85.2193 48.2544 90.8932 48.4815 94.7826 51.5136C96.5155 52.8646 98.0304 54.7245 99.0628 57.319L101.064 56.8429Z" fill="#3498DB"></path>
    <path opacity="0.64" d="M101.064 56.8429C101.396 50.9307 100.071 46.5654 96.7982 44.0136C93.4865 41.4317 88.7587 41.4485 84.7504 43.3839C81.464 45.0181 79.4504 46.8424 78.1099 48.8828C75.8578 52.3108 76.183 56.5138 77.6233 60.9691C70.7279 62.6901 66.1229 65.8882 63.2543 70.2548C56.4982 80.5388 60.951 91.0453 70.4625 98.4606C72.0799 99.7215 73.7124 100.871 75.4589 101.492C79.5115 102.059 84.1891 101.942 89.4077 101.444L89.4467 100.055C86.3641 98.4538 83.3151 96.447 80.35 94.1354C69.0285 85.309 65.4312 75.7163 68.8092 70.5743C71.5707 66.3709 81.5453 66.4335 96.5441 71.5236C98.9346 69.7463 101.213 67.6965 103.426 65.6574L103.255 65.0307C94.1776 62.2734 88.452 61.3272 87.4123 60.5166C86.4881 59.7961 85.5459 57.9507 84.8098 55.5255C84.1693 52.8663 83.7984 50.4173 84.6563 49.1114C85.2193 48.2544 90.8932 48.4815 94.7826 51.5136C96.5155 52.8646 98.0304 54.7245 99.0628 57.319L101.064 56.8429Z" fill="#3498DB"></path>
    <path opacity="0.64" d="M101.064 56.8429C101.396 50.9307 100.071 46.5654 96.7982 44.0136C93.4865 41.4317 88.7587 41.4485 84.7504 43.3839C81.464 45.0181 79.4504 46.8424 78.1099 48.8828C75.8578 52.3108 76.183 56.5138 77.6233 60.9691C70.7279 62.6901 66.1229 65.8882 63.2543 70.2548C56.4982 80.5388 60.951 91.0453 70.4625 98.4606C72.0799 99.7215 73.7124 100.871 75.4589 101.492C79.5115 102.059 84.1891 101.942 89.4077 101.444L89.4467 100.055C86.3641 98.4538 83.3151 96.447 80.35 94.1354C69.0285 85.309 65.4312 75.7163 68.8092 70.5743C71.5707 66.3709 81.5453 66.4335 96.5441 71.5236C98.9346 69.7463 101.213 67.6965 103.426 65.6574L103.255 65.0307C94.1776 62.2734 88.452 61.3272 87.4123 60.5166C86.4881 59.7961 85.5459 57.9507 84.8098 55.5255C84.1693 52.8663 83.7984 50.4173 84.6563 49.1114C85.2193 48.2544 90.8932 48.4815 94.7826 51.5136C96.5155 52.8646 98.0304 54.7245 99.0628 57.319L101.064 56.8429Z" fill="#3498DB"></path>
    <path d="M44.625 52V104.5H35.875V52H18.375V43.25H62.125V52H44.625Z" fill="#3498DB" fill-opacity="0.6"></path>
    <path d="M59.5532 104.815C58.7594 104.251 59.1586 103 60.1326 103H105.767C106.631 103 107.089 104.021 106.513 104.666L98.5945 113.54C98.4048 113.752 98.1334 113.874 97.8484 113.874H72.6155C72.4079 113.874 72.2054 113.809 72.0361 113.689L59.5532 104.815Z" fill="#3498DB" fill-opacity="0.6"></path>
    <circle cx="63.5" cy="73.5" r="58.5" stroke="#629CC1" stroke-opacity="0.43" stroke-width="10"></circle>
  </symbol>
  <symbol fill="none" xmlns="http://www.w3.org/2000/svg" viewBox="0 0 155 147" id="fav">
    <path opacity="0.64" d="M94.0643 66.8429C94.3963 60.9307 93.0714 56.5654 89.7982 54.0136C86.4865 51.4317 81.7587 51.4485 77.7504 53.3839C74.464 55.0181 72.4504 56.8424 71.1099 58.8828C68.8578 62.3108 69.183 66.5138 70.6233 70.9691C63.7279 72.6901 59.1229 75.8882 56.2543 80.2548C49.4982 90.5388 53.951 101.045 63.4625 108.461C65.0799 109.722 66.7124 110.871 68.4589 111.492C72.5115 112.059 77.1891 111.942 82.4077 111.444L82.4467 110.055C79.3641 108.454 76.3151 106.447 73.35 104.135C62.0285 95.309 58.4312 85.7163 61.8092 80.5743C64.5707 76.3709 74.5453 76.4335 89.5441 81.5236C91.9346 79.7463 94.2129 77.6965 96.426 75.6574L96.2554 75.0307C87.1776 72.2734 81.452 71.3272 80.4123 70.5166C79.4881 69.7961 78.5459 67.9507 77.8098 65.5255C77.1693 62.8663 76.7984 60.4173 77.6563 59.1114C78.2193 58.2544 83.8932 58.4815 87.7826 61.5136C89.5155 62.8646 91.0304 64.7245 92.0628 67.319L94.0643 66.8429Z" fill="#3498DB"></path>
    <path d="M49.0923 58.4659V123.767H38.2088V58.4659H16.4418V47.5824H70.8594V58.4659H49.0923Z" fill="#3498DB"></path>
    <rect x="39" y="113" width="74.2" height="10.8738" rx="1" fill="#3498DB"></rect>
    <circle cx="63.5" cy="83.5" r="58.5" stroke="#3498DB" stroke-width="10"></circle>
  </symbol>
  <symbol fill="none" xmlns="http://www.w3.org/2000/svg" viewBox="0 0 199 68" id="logo-new">
  <title>logo-new</title>
    <path fill-rule="evenodd" clip-rule="evenodd" d="M24.759 59.8833V18.5209H40.9246V10.4381H0.510559V18.5209H16.6762V67.0178H18.5125C18.6482 67.1954 18.8622 67.31 19.1029 67.31H154.114C154.524 67.31 154.857 66.9775 154.857 66.5673V60.626C154.857 60.2158 154.524 59.8833 154.114 59.8833H143.096V26.6038L155.221 50.8522H163.304L175.428 26.6038V50.8522H183.511V10.4381H175.428L159.262 40.7487L143.096 10.4381H135.014V59.8833H24.759ZM50.7756 8.41742L30.5685 50.8522H39.6617L50.7756 27.6141L61.8894 50.8522H70.9826L50.7756 8.41742ZM113.417 42.7694H81.0861V10.4381H73.0033V50.8522H113.417V42.7694ZM117.901 50.8522H125.984V10.4381H117.901V50.8522Z" fill="#1992E2" fill-opacity="0.79"></path>
    <path opacity="0.64" d="M68.1123 14.1135C67.587 12.6425 66.808 11.727 65.7302 11.4632C64.6397 11.1963 63.4637 11.7139 62.6642 12.619C62.0135 13.3726 61.6995 14.034 61.5754 14.6749C61.3669 15.7514 61.8801 16.7362 62.6971 17.661C61.1564 18.8277 60.3381 20.1041 60.0725 21.4754C59.4471 24.7052 61.6368 26.7715 64.7689 27.538C65.3014 27.6684 65.8263 27.77 66.3253 27.731C67.3932 27.4286 68.5464 26.892 69.7952 26.2042L69.6621 25.8629C68.7295 25.8092 67.7636 25.6533 66.7872 25.4143C63.0591 24.5019 61.1765 22.5645 61.4892 20.9496C61.7448 19.6295 64.2361 18.5612 68.496 18.1675C68.9087 17.4764 69.2655 16.7315 69.6071 15.9962L69.5002 15.8627C66.9552 16.1795 65.4316 16.5717 65.0892 16.4879C64.7848 16.4135 64.3603 16.0679 63.9276 15.5593C63.4946 14.9835 63.1503 14.4294 63.2297 14.0192C63.2818 13.7501 64.7187 13.1889 65.9994 13.5024C66.57 13.642 67.1387 13.9289 67.6627 14.4464L68.1123 14.1135Z" fill="#48A7E6"></path>
  </symbol>
</svg>